<?xml version="1.0" encoding="UTF-8" standalone="no"?>
<!-- Created with Inkscape (http://www.inkscape.org/) -->

<svg
   id="SVGRoot"
   width="64px"
   height="64px"
   version="1.1"
   viewBox="0 0 64 64"
   xml:space="preserve"
   sodipodi:docname="AUIcon.svg"
   inkscape:version="1.2.2 (b0a8486541, 2022-12-01)"
   xmlns:inkscape="http://www.inkscape.org/namespaces/inkscape"
   xmlns:sodipodi="http://sodipodi.sourceforge.net/DTD/sodipodi-0.dtd"
   xmlns="http://www.w3.org/2000/svg"
   xmlns:svg="http://www.w3.org/2000/svg"><defs
     id="defs17"><rect
       x="0.09281749"
       y="11.608067"
       width="64.314894"
       height="37.798272"
       id="rect366" /><rect
       x="-0.23800572"
       y="0.042994199"
       width="64.171343"
       height="63.595173"
       id="rect360" /><rect
       x="3.1851037"
       y="13.179496"
       width="57.731326"
       height="38.818149"
       id="rect354" /></defs><sodipodi:namedview
     id="namedview15"
     pagecolor="#505050"
     bordercolor="#eeeeee"
     borderopacity="1"
     inkscape:showpageshadow="0"
     inkscape:pageopacity="0"
     inkscape:pagecheckerboard="0"
     inkscape:deskcolor="#505050"
     showgrid="false"
     inkscape:zoom="7.9225181"
     inkscape:cx="35.152965"
     inkscape:cy="38.371638"
     inkscape:window-width="1920"
     inkscape:window-height="1016"
     inkscape:window-x="0"
     inkscape:window-y="32"
     inkscape:window-maximized="1"
     inkscape:current-layer="SVGRoot"
     showguides="true"><sodipodi:guide
       position="-77.650872,97.001621"
       orientation="0.70710678,-0.70710678"
       id="guide293"
       inkscape:locked="false" /><sodipodi:guide
       position="8.9686845,34.918026"
       orientation="1,0"
       id="guide295"
       inkscape:locked="false" /><sodipodi:guide
       position="55.076427,32.054877"
       orientation="1,0"
       id="guide297"
       inkscape:locked="false" /><sodipodi:guide
       position="59.11423,41.375365"
       orientation="0,-1"
       id="guide418"
       inkscape:locked="false" /><sodipodi:guide
       position="60.217798,22.833532"
       orientation="0,-1"
       id="guide420"
       inkscape:locked="false" /><sodipodi:guide
       position="12.117359,62.611553"
       orientation="1,0"
       id="guide2438"
       inkscape:locked="false" /><sodipodi:guide
       position="51.372555,45.950183"
       orientation="1,0"
       id="guide2544"
       inkscape:locked="false" /></sodipodi:namedview><path
     id="text364"
     style="font-style:normal;font-variant:normal;font-weight:normal;font-stretch:normal;font-size:14.6667px;font-family:Likhan;-inkscape-font-specification:Likhan;text-align:center;white-space:pre;shape-inside:url(#rect366);display:inline;fill:#626262;stroke:none"
     d="M 22.972507 14.551838 C 21.187063 14.551838 19.749192 15.798406 19.749192 17.346302 L 19.749192 23.706778 C 19.749192 25.254673 21.187063 26.500282 22.972507 26.500282 L 42.750732 26.500282 C 44.536175 26.500282 45.97294 25.254673 45.97294 23.706778 L 45.97294 17.346302 C 45.97294 15.798406 44.536175 14.551838 42.750732 14.551838 L 22.972507 14.551838 z M 34.674734 16.176504 L 34.703514 16.176504 C 34.994747 16.176504 35.243167 16.281195 35.448462 16.491265 C 35.653758 16.701335 35.754316 16.949485 35.749541 17.235944 L 35.706372 21.605172 C 35.701598 22.087378 35.875533 22.49741 36.228832 22.836387 C 36.582131 23.180137 36.962024 23.352671 37.36784 23.352671 L 37.417651 23.352671 C 37.818693 23.352671 38.191877 23.18304 38.535628 22.844064 C 38.879378 22.500313 39.048473 22.099013 39.043698 21.640679 L 39.000529 17.235944 C 38.995755 16.949485 39.096312 16.701335 39.301608 16.491265 C 39.511678 16.28597 39.764939 16.181279 40.060946 16.176504 L 40.089726 16.176504 C 40.466897 16.176504 40.757781 16.279252 40.963076 16.484548 C 41.168372 16.689843 41.268929 16.939936 41.264155 17.235944 L 41.264155 21.404608 C 41.264155 22.454956 40.895812 23.3545 40.160568 24.104067 C 39.425324 24.853634 38.530333 25.225859 37.47521 25.221085 L 37.39662 25.221085 C 36.312851 25.221085 35.388813 24.839168 34.624923 24.075278 C 33.865808 23.316163 33.485915 22.392389 33.485915 21.303846 L 33.485915 17.235944 C 33.485915 16.939936 33.589447 16.691786 33.794742 16.491265 C 34.000038 16.28597 34.292789 16.181279 34.674734 16.176504 z M 28.036609 16.298378 L 28.236959 16.298378 C 28.547289 16.298378 28.855671 16.405972 29.161227 16.620816 C 29.471557 16.83566 29.687957 17.114829 29.812089 17.45858 L 32.096746 23.789306 C 32.220878 24.133057 32.17544 24.452936 31.960596 24.748944 C 31.745752 25.049725 31.45971 25.199973 31.101636 25.199973 L 30.944455 25.199973 C 30.715288 25.199973 30.502623 25.128244 30.306876 24.985014 C 30.11113 24.846559 29.994181 24.672082 29.955987 24.462012 L 29.582959 22.686683 L 26.868821 22.686683 L 26.52568 24.4409 C 26.482711 24.670067 26.360922 24.854236 26.1604 24.992691 C 25.955105 25.131147 25.716367 25.199973 25.444231 25.199973 L 25.285943 25.199973 C 24.92787 25.199973 24.644801 25.049725 24.434731 24.748944 C 24.224662 24.452936 24.17625 24.133057 24.290834 23.789306 L 26.460372 17.487369 C 26.584505 17.124521 26.800144 16.83566 27.1057 16.620816 C 27.411256 16.405972 27.721504 16.298378 28.036609 16.298378 z M 28.16501 18.153357 L 26.99833 21.368142 L 29.325049 21.368142 L 28.16501 18.153357 z "
     transform="matrix(1.7644878,0,0,2.0352743,-26.07377,-10.185342)" /></svg>
