<?xml version="1.0" encoding="UTF-8"?>
<svg width="18" height="18" clip-rule="evenodd" fill-rule="evenodd" stroke-linejoin="round" stroke-miterlimit="2" version="1.1" viewBox="0 0 18 18" xml:space="preserve" xmlns="http://www.w3.org/2000/svg" xmlns:cc="http://creativecommons.org/ns#" xmlns:dc="http://purl.org/dc/elements/1.1/" xmlns:rdf="http://www.w3.org/1999/02/22-rdf-syntax-ns#"><metadata><rdf:RDF><cc:Work rdf:about=""><dc:format>image/svg+xml</dc:format><dc:type rdf:resource="http://purl.org/dc/dcmitype/StillImage"/><dc:title/></cc:Work></rdf:RDF></metadata>
    <rect width="18" height="18" fill-opacity="0" stroke-width=".75"/><g fill="#626262" stroke="#626262" stroke-linecap="round" stroke-linejoin="round" stroke-miterlimit="2" stroke-width="1.0645">
    
<path d="m5.4677 4.5a0.96774 0.96774 0 0 1-0.96774 0.96774 0.96774 0.96774 0 0 1-0.96774-0.96774 0.96774 0.96774 0 0 1 0.96774-0.96774 0.96774 0.96774 0 0 1 0.96774 0.96774z"/><path d="m8.4677 13.5a0.96774 0.96774 0 0 1-0.96774 0.96774 0.96774 0.96774 0 0 1-0.96774-0.96774 0.96774 0.96774 0 0 1 0.96774-0.96774 0.96774 0.96774 0 0 1 0.96774 0.96774z"/><path d="m14.468 6.5a0.96774 0.96774 0 0 1-0.96774 0.96774 0.96774 0.96774 0 0 1-0.96774-0.96774 0.96774 0.96774 0 0 1 0.96774-0.96774 0.96774 0.96774 0 0 1 0.96774 0.96774z"/></g><path d="m4.5 4.5c-0.36326 5.8545 0.74671 8.6243 3 9 1.8499-6.7953 3.9345-6.6147 6-7" fill="none" stroke="#626262" stroke-linejoin="miter" stroke-width="1px"/></svg>
