<?xml version="1.0" encoding="UTF-8" standalone="no"?>
<!-- Created with Inkscape (http://www.inkscape.org/) -->

<svg
   id="SVGRoot"
   width="64px"
   height="64px"
   version="1.1"
   viewBox="0 0 64 64"
   sodipodi:docname="homeButton.svg"
   inkscape:version="1.2.2 (b0a8486541, 2022-12-01)"
   xmlns:inkscape="http://www.inkscape.org/namespaces/inkscape"
   xmlns:sodipodi="http://sodipodi.sourceforge.net/DTD/sodipodi-0.dtd"
   xmlns="http://www.w3.org/2000/svg"
   xmlns:svg="http://www.w3.org/2000/svg">
  <defs
     id="defs474" />
  <sodipodi:namedview
     id="namedview472"
     pagecolor="#505050"
     bordercolor="#eeeeee"
     borderopacity="1"
     inkscape:showpageshadow="0"
     inkscape:pageopacity="0"
     inkscape:pagecheckerboard="0"
     inkscape:deskcolor="#505050"
     showgrid="false"
     inkscape:zoom="13.21875"
     inkscape:cx="27.990544"
     inkscape:cy="32"
     inkscape:window-width="1920"
     inkscape:window-height="1016"
     inkscape:window-x="0"
     inkscape:window-y="32"
     inkscape:window-maximized="1"
     inkscape:current-layer="SVGRoot" />
  <path
     d="m 54.2906,48.21568 c 2.0685,-1.0328 2.4241,-2.3013 2.4247,-8.6504 3.53e-4,-4.1666 0.11264,-5.6115 0.44266,-5.6992 2.2196,-0.58977 2.6082,-0.83794 3.1977,-2.042 1.1046,-2.2561 0.95675,-2.4472 -11.92,-15.405 l -12.057,-12.133 -1.6617,0.0047 c -1.8476,0.0052 -4.1408,1.6229 -7.324,5.1669 -0.85701,0.95412 -5.4116,5.6342 -10.121,10.4 -9.0815,9.19 -9.5745,9.8733 -8.5946,11.912 0.41206,0.85719 0.92413,1.2252 3.1201,2.2423 0.43054,0.19942 0.56387,1.3818 0.70738,6.2734 0.19333,6.5895 0.35049,7.0814 2.5642,8.0257 1.7394,0.74198 37.72,0.65435 39.222,-0.0955 z m -37.117,-4.731 c -0.29422,-0.29421 -0.42443,-2.1351 -0.42443,-6.0004 v -5.576 l -2.1737,-2.4757 1.6864,-1.8693 c 4.0015,-4.4355 17.682,-17.962 18.167,-17.962 0.2921,0 4.9395,4.4063 10.328,9.7918 l 9.7965,9.7918 -0.99512,1.1334 c -1.1472,1.3066 -1.54,4.0092 -1.3848,9.5291 0.0493,1.7539 -0.03176,3.3853 -0.18013,3.6253 -0.37382,0.60486 -9.8106,0.61579 -10.414,0.0121 -0.94564,-0.94564 -0.49684,-2.9859 1.0495,-4.771 9.6243,-11.11 -4.5012,-26.847 -15.518,-17.288 -4.7892,4.1554 -5.1967,12.452 -0.83505,17.001 2.1963,2.2906 2.6918,3.8253 1.5907,4.9264 -0.71186,0.71185 -9.997,0.82594 -10.692,0.13137 z m 15.905,-6.3894 c -2.0738,-0.42361 -4.7874,-3.0261 -5.3472,-5.1284 -1.6036,-6.0216 5.5937,-11.23 10.624,-7.6875 6.2372,4.392 2.1446,14.332 -5.2767,12.816 z m 3.0978,-5.4362 c 0.92177,-1.1718 0.92943,-2.0549 0.02568,-2.9587 -0.96122,-0.96122 -2.6393,-0.92169 -3.34,0.0787 -1.7998,2.5695 1.383,5.3352 3.3143,2.88 z"
     fill="#626262"
     stroke-width="0.35369"
     id="path469"
     sodipodi:nodetypes="cccccccccccsscccsccssccsccccccscccccccccccc" />
</svg>
