<?xml version="1.0" encoding="UTF-8"?>
<!-- Created with Inkscape (http://www.inkscape.org/) -->
<svg id="SVGRoot" width="64px" height="64px" version="1.1" viewBox="0 0 64 64" xmlns="http://www.w3.org/2000/svg">
 <path d="m23.403 58.825c0.09117-0.92318 0.26371-1.1223 0.97265-1.1223h1.1271c0.28132 0 0.32757 0.18497 0.3979 1.5916 0.12227 2.4454 0.75159 0.52036 0.75159-2.299 0-1.8864-0.1441-3.1832-0.35369-3.1832-0.19453 0-0.35369 0.55706-0.35369 1.2379 0 1.179-0.05895 1.2379-1.2379 1.2379-1.179 0-1.2379-0.0589-1.2379-1.2379 0-0.86458-0.16-1.2379-0.53054-1.2379-0.43265 0-0.53054 0.59276-0.53054 3.2127 0 3.2054 0.72648 4.5197 0.99506 1.8002zm8.3564 0.88241c1.9679-1.4389 0.62818-6.0534-1.6915-5.8262-2.8692 0.28099-2.5844 6.2974 0.2981 6.2974 0.41196 0 1.039-0.21202 1.3934-0.47116zm-2.2069-1.0143c-0.23344-0.23343-0.42443-1.0098-0.42443-1.7252 0-2.6051 2.1912-2.7664 2.4102-0.17733 0.16195 1.9146-0.92873 2.9596-1.9858 1.9025zm5.2441-0.19453 0.0095-1.68 1.9815 2.3889 1.8823-2.3889 0.0039 1.68c0.0028 1.2558 0.13788 1.68 0.53446 1.68 0.43229 0 0.53054-0.58948 0.53054-3.1832 0-3.5964-0.24816-3.8521-1.5622-1.6099-1.2844 2.1917-1.4458 2.2044-2.5364 0.20054-1.3356-2.454-1.5604-2.251-1.5604 1.4094 0 1.8864 0.1441 3.1832 0.35369 3.1832 0.19453 0 0.35797-0.75601 0.3632-1.68zm9.8284 1.0611c-0.07778-0.41058-0.51042-0.6568-1.2852-0.73138-1.4859-0.14303-1.4485-1.2441 0.0482-1.4163 1.1968-0.13765 1.0795-0.92855-0.13933-0.93946-1.4224-0.0127-1.1593-1.3933 0.29218-1.5333 1.9897-0.19184 1.4903-1.1877-0.53054-1.058l-1.68 0.10781-0.10219 3.0948-0.1022 3.0948h1.8082c1.5309 0 1.7902-0.0949 1.6909-0.61896zm9.6656-11.344c2.0685-1.0328 2.4241-2.3013 2.4247-8.6504 3.53e-4 -4.1666 0.11264-5.6115 0.44266-5.6992 2.2196-0.58977 2.6082-0.83794 3.1977-2.042 1.1046-2.2561 0.95675-2.4472-11.92-15.405l-12.057-12.133-1.6617 0.0047c-1.8476 0.0052-4.1408 1.6229-7.324 5.1669-0.85701 0.95412-5.4116 5.6342-10.121 10.4-9.0815 9.19-9.5745 9.8733-8.5946 11.912 0.41206 0.85719 0.92413 1.2252 3.1201 2.2423 0.43054 0.19942 0.56387 1.3818 0.70738 6.2734 0.19333 6.5895 0.35049 7.0814 2.5642 8.0257 1.7394 0.74198 37.72 0.65435 39.222-0.0955zm-37.117-4.731c-0.29422-0.29421-0.42443-2.1351-0.42443-6.0004v-5.576l-2.1737-2.4757 1.6864-1.8693c4.0015-4.4355 17.682-17.962 18.167-17.962 0.2921 0 4.9395 4.4063 10.328 9.7918l9.7965 9.7918-0.99512 1.1334c-1.1472 1.3066-1.54 4.0092-1.3848 9.5291 0.0493 1.7539-0.03176 3.3853-0.18013 3.6253-0.37382 0.60486-9.8106 0.61579-10.414 0.0121-0.94564-0.94564-0.49684-2.9859 1.0495-4.771 9.6243-11.11-4.5012-26.847-15.518-17.288-4.7892 4.1554-5.1967 12.452-0.83505 17.001 2.1963 2.2906 2.6918 3.8253 1.5907 4.9264-0.71186 0.71185-9.997 0.82594-10.692 0.13137zm15.905-6.3894c-2.0738-0.42361-4.7874-3.0261-5.3472-5.1284-1.6036-6.0216 5.5937-11.23 10.624-7.6875 6.2372 4.392 2.1446 14.332-5.2767 12.816zm3.0978-5.4362c0.92177-1.1718 0.92943-2.0549 0.02568-2.9587-0.96122-0.96122-2.6393-0.92169-3.34 0.0787-1.7998 2.5695 1.383 5.3352 3.3143 2.88z" fill="#626262" stroke-width=".35369"/>
</svg>
