<?xml version="1.0" encoding="UTF-8" standalone="no"?>
<!-- Created with Inkscape (http://www.inkscape.org/) -->

<svg
   id="SVGRoot"
   width="64px"
   height="64px"
   version="1.1"
   viewBox="0 0 64 64"
   xml:space="preserve"
   sodipodi:docname="INTIcon.svg"
   inkscape:version="1.2.2 (b0a8486541, 2022-12-01)"
   xmlns:inkscape="http://www.inkscape.org/namespaces/inkscape"
   xmlns:sodipodi="http://sodipodi.sourceforge.net/DTD/sodipodi-0.dtd"
   xmlns="http://www.w3.org/2000/svg"
   xmlns:svg="http://www.w3.org/2000/svg"><defs
     id="defs17"><rect
       x="12.195732"
       y="22.94021"
       width="40.117436"
       height="19.588851"
       id="rect447" /><rect
       x="0.09281749"
       y="11.608067"
       width="64.314894"
       height="37.798272"
       id="rect366" /><rect
       x="-0.23800572"
       y="0.042994199"
       width="64.171343"
       height="63.595173"
       id="rect360" /><rect
       x="3.1851037"
       y="13.179496"
       width="57.731326"
       height="38.818149"
       id="rect354" /></defs><sodipodi:namedview
     id="namedview15"
     pagecolor="#505050"
     bordercolor="#eeeeee"
     borderopacity="1"
     inkscape:showpageshadow="0"
     inkscape:pageopacity="0"
     inkscape:pagecheckerboard="0"
     inkscape:deskcolor="#505050"
     showgrid="false"
     inkscape:zoom="4.3002817"
     inkscape:cx="64.763198"
     inkscape:cy="81.855102"
     inkscape:window-width="1920"
     inkscape:window-height="1016"
     inkscape:window-x="0"
     inkscape:window-y="32"
     inkscape:window-maximized="1"
     inkscape:current-layer="SVGRoot"
     showguides="true"><sodipodi:guide
       position="-77.650872,97.001621"
       orientation="0.70710678,-0.70710678"
       id="guide293"
       inkscape:locked="false" /><sodipodi:guide
       position="8.9686845,34.918026"
       orientation="1,0"
       id="guide295"
       inkscape:locked="false" /><sodipodi:guide
       position="55.076427,32.054877"
       orientation="1,0"
       id="guide297"
       inkscape:locked="false" /><sodipodi:guide
       position="59.11423,41.375365"
       orientation="0,-1"
       id="guide418"
       inkscape:locked="false" /><sodipodi:guide
       position="60.217798,22.833532"
       orientation="0,-1"
       id="guide420"
       inkscape:locked="false" /><sodipodi:guide
       position="12.117359,62.611553"
       orientation="1,0"
       id="guide2438"
       inkscape:locked="false" /><sodipodi:guide
       position="51.372555,45.950183"
       orientation="1,0"
       id="guide2544"
       inkscape:locked="false" /></sodipodi:namedview><path
     id="text364"
     style="font-style:normal;font-variant:normal;font-weight:normal;font-stretch:normal;font-size:14.6667px;font-family:Likhan;-inkscape-font-specification:Likhan;text-align:center;white-space:pre;shape-inside:url(#rect366);display:inline;fill:#626262;stroke:none"
     inkscape:label="text364"
     d="M 22.972507 14.551838 C 21.187066 14.551838 19.749192 15.798412 19.749192 17.346302 L 19.749192 23.706778 C 19.749192 25.254667 21.187066 26.500282 22.972507 26.500282 L 42.750732 26.500282 C 44.536169 26.500282 45.97294 25.254667 45.97294 23.706778 L 45.97294 17.346302 C 45.97294 15.798412 44.536169 14.551838 42.750732 14.551838 L 22.972507 14.551838 z M 22.935979 16.232163 L 22.959224 16.232163 C 23.280063 16.232163 23.558549 16.333776 23.793832 16.536368 C 24.029114 16.73896 24.146936 16.99103 24.146936 17.292562 L 24.146936 24.211547 C 24.146936 24.498944 24.031515 24.746043 23.80158 24.953346 C 23.571645 25.16065 23.290758 25.264269 22.959224 25.264269 L 22.935979 25.264269 C 22.604444 25.264269 22.320049 25.163616 22.084767 24.961023 C 21.849484 24.75372 21.73277 24.503656 21.73277 24.211547 L 21.73277 17.292562 C 21.73277 17.000453 21.849484 16.751349 22.084767 16.544045 C 22.320049 16.336742 22.604444 16.232163 22.935979 16.232163 z M 26.512397 16.374189 L 27.218604 16.374189 C 27.641043 16.374189 27.962373 16.519675 28.181614 16.811784 L 32.400039 22.317223 L 32.248392 17.405799 C 32.237696 17.127825 32.352009 16.887704 32.592641 16.685112 C 32.827922 16.477809 33.104008 16.374189 33.419501 16.374189 L 33.451601 16.374189 C 33.87404 16.374189 34.200173 16.472838 34.430107 16.670717 C 34.654695 16.868598 34.766607 17.113691 34.766607 17.405799 L 34.766607 23.596419 C 34.766607 23.864971 34.586921 24.251538 34.22865 24.755661 C 33.923852 25.085462 33.485807 25.249874 32.913644 25.249874 L 32.866047 25.249874 C 32.18159 25.249874 31.654348 24.983849 31.285383 24.451456 L 27.715606 19.321235 L 27.860611 24.204829 C 27.871307 24.473381 27.758288 24.717514 27.523004 24.938952 C 27.298416 25.146255 27.021037 25.249874 26.689502 25.249874 L 26.657402 25.249874 C 26.245658 25.249874 25.924327 25.146255 25.694392 24.938952 C 25.459111 24.741071 25.341289 24.496939 25.341289 24.204829 L 25.341289 17.405799 C 25.341289 17.123114 25.459111 16.878021 25.694392 16.670717 C 25.908286 16.472838 26.180863 16.374189 26.512397 16.374189 z M 36.763469 16.374189 L 42.915661 16.374189 C 43.188375 16.374189 43.410905 16.472839 43.58202 16.670717 C 43.753132 16.868598 43.79247 17.104707 43.701566 17.37797 L 43.701566 17.405799 C 43.658787 17.561277 43.557586 17.692807 43.397166 17.80117 C 43.231399 17.909533 43.070734 17.957331 42.915661 17.943196 L 41.071553 17.815565 L 41.071553 24.232659 C 41.071553 24.5389 40.95373 24.79795 40.71845 25.009965 C 40.483167 25.217268 40.189168 25.320887 39.836244 25.320887 L 39.827389 25.320887 C 39.48516 25.320887 39.19707 25.217268 38.961787 25.009965 C 38.726505 24.802662 38.608684 24.543612 38.608684 24.232659 L 38.608684 17.815565 L 36.763469 17.943196 C 36.581659 17.95733 36.413791 17.902554 36.258719 17.780058 C 36.103646 17.662272 36.009648 17.53772 35.977564 17.405799 L 35.977564 17.37797 C 35.902702 17.085861 35.947947 16.84478 36.113714 16.656323 C 36.279481 16.467865 36.496102 16.374189 36.763469 16.374189 z "
     transform="matrix(1.7644878,0,0,2.0352743,-26.07377,-10.185342)" /><g
     aria-label="INT"
     transform="scale(0.99194937,1.008116)"
     id="text1019"
     style="font-size:29.2205px;font-family:Dyuthi;-inkscape-font-specification:Dyuthi;text-align:center;text-anchor:middle;fill:#626262;stroke-width:1.56538" /></svg>
