<?xml version="1.0" encoding="UTF-8" standalone="no"?>
<!-- Created with Inkscape (http://www.inkscape.org/) -->

<svg
   id="SVGRoot"
   width="64px"
   height="64px"
   version="1.1"
   viewBox="0 0 64 64"
   xml:space="preserve"
   sodipodi:docname="la2Icon.svg"
   inkscape:version="1.2.2 (b0a8486541, 2022-12-01)"
   xmlns:inkscape="http://www.inkscape.org/namespaces/inkscape"
   xmlns:sodipodi="http://sodipodi.sourceforge.net/DTD/sodipodi-0.dtd"
   xmlns="http://www.w3.org/2000/svg"
   xmlns:svg="http://www.w3.org/2000/svg"><defs
     id="defs17"><rect
       x="0.09281749"
       y="11.608067"
       width="64.314894"
       height="37.798272"
       id="rect366" /><rect
       x="-0.23800572"
       y="0.042994199"
       width="64.171343"
       height="63.595173"
       id="rect360" /><rect
       x="3.1851037"
       y="13.179496"
       width="57.731326"
       height="38.818149"
       id="rect354" /></defs><sodipodi:namedview
     id="namedview15"
     pagecolor="#505050"
     bordercolor="#eeeeee"
     borderopacity="1"
     inkscape:showpageshadow="0"
     inkscape:pageopacity="0"
     inkscape:pagecheckerboard="0"
     inkscape:deskcolor="#505050"
     showgrid="false"
     inkscape:zoom="7.9225181"
     inkscape:cx="35.152965"
     inkscape:cy="38.371638"
     inkscape:window-width="1920"
     inkscape:window-height="1016"
     inkscape:window-x="0"
     inkscape:window-y="32"
     inkscape:window-maximized="1"
     inkscape:current-layer="SVGRoot"
     showguides="true"><sodipodi:guide
       position="-77.650872,97.001621"
       orientation="0.70710678,-0.70710678"
       id="guide293"
       inkscape:locked="false" /><sodipodi:guide
       position="8.9686845,34.918026"
       orientation="1,0"
       id="guide295"
       inkscape:locked="false" /><sodipodi:guide
       position="55.076427,32.054877"
       orientation="1,0"
       id="guide297"
       inkscape:locked="false" /><sodipodi:guide
       position="59.11423,41.375365"
       orientation="0,-1"
       id="guide418"
       inkscape:locked="false" /><sodipodi:guide
       position="60.217798,22.833532"
       orientation="0,-1"
       id="guide420"
       inkscape:locked="false" /><sodipodi:guide
       position="12.117359,62.611553"
       orientation="1,0"
       id="guide2438"
       inkscape:locked="false" /><sodipodi:guide
       position="51.372555,45.950183"
       orientation="1,0"
       id="guide2544"
       inkscape:locked="false" /></sodipodi:namedview><path
     id="text364"
     style="font-style:normal;font-variant:normal;font-weight:normal;font-stretch:normal;font-size:14.6667px;font-family:Likhan;-inkscape-font-specification:Likhan;text-align:center;white-space:pre;shape-inside:url(#rect366);display:inline;fill:#626262;stroke:none;letter-spacing:1.64153531px"
     d="M 19.761515 14.551838 C 17.391448 14.551838 15.482761 15.798406 15.482761 17.346302 L 15.482761 23.706778 C 15.482761 25.254673 17.391448 26.500282 19.761515 26.500282 L 46.015901 26.500282 C 48.385967 26.500282 50.293185 25.254673 50.293185 23.706778 L 50.293185 17.346302 C 50.293185 15.798406 48.385967 14.551838 46.015901 14.551838 L 19.761515 14.551838 z M 21.138298 16.205293 L 21.160338 16.205293 C 21.52796 16.205293 21.820862 16.308041 22.04048 16.513337 C 22.260099 16.718632 22.368512 16.971628 22.363738 17.27241 L 22.241781 23.48798 L 25.320074 23.352671 C 25.544467 23.338348 25.740714 23.41881 25.907815 23.59546 C 26.074916 23.767335 26.156502 23.966042 26.151728 24.190435 L 26.151728 24.204829 C 26.151728 24.519934 26.072714 24.760335 25.915162 24.927436 C 25.752835 25.089763 25.554016 25.171184 25.320074 25.171184 L 21.202949 25.171184 C 20.926039 25.171184 20.688999 25.076185 20.493252 24.885212 C 20.30228 24.69424 20.206729 24.457725 20.206729 24.17604 L 20.206729 17.27241 C 20.206729 16.985951 20.309997 16.737801 20.515293 16.527731 C 20.720588 16.312887 20.928228 16.205293 21.138298 16.205293 z M 42.389539 16.283984 C 43.272787 16.283984 43.991259 16.517596 44.545079 16.985478 C 45.098899 17.453361 45.375263 18.066947 45.375263 18.826063 C 45.375263 19.585178 45.014741 20.365493 44.29382 21.167577 C 43.940521 21.554297 43.303635 22.340417 42.382193 23.524446 L 44.537732 23.524446 C 44.762125 23.524446 44.960945 23.607811 45.13282 23.774912 C 45.299921 23.951561 45.380037 24.147366 45.375263 24.36221 L 45.375263 24.383322 C 45.375263 24.612489 45.297719 24.813139 45.140167 24.985014 C 44.97784 25.15689 44.776448 25.243157 44.537732 25.243157 L 40.241346 25.243157 C 39.940565 25.243157 39.735497 25.106487 39.625688 24.834351 C 39.511104 24.562216 39.541607 24.316968 39.718257 24.09735 C 40.019039 23.724954 40.658497 22.891333 41.637231 21.597495 C 42.615965 20.298882 43.107686 19.642642 43.112461 19.628319 C 43.332079 19.313215 43.430203 19.035989 43.406331 18.797273 C 43.392008 18.697013 43.353788 18.570995 43.291722 18.418217 C 43.23443 18.265439 43.170851 18.159788 43.099236 18.102496 C 43.027622 18.045204 42.954856 17.997705 42.883242 17.95951 C 42.510845 17.754215 42.172006 17.667948 41.86645 17.701368 C 41.560894 17.734788 41.315033 17.83269 41.128835 17.995017 C 40.937863 18.157343 40.754478 18.236821 40.577828 18.232047 C 40.39163 18.222499 40.236175 18.165307 40.112043 18.060272 L 40.09735 18.060272 C 39.911152 17.921817 39.828463 17.735704 39.84756 17.501763 C 39.866657 17.267822 39.971029 17.078807 40.162001 16.935577 C 40.763565 16.496341 41.506292 16.279209 42.389539 16.283984 z M 32.533125 16.298378 L 32.734426 16.298378 C 33.044756 16.298378 33.353092 16.405972 33.658648 16.620816 C 33.968979 16.83566 34.185439 17.114829 34.309571 17.45858 L 36.594414 23.789306 C 36.718546 24.133057 36.672608 24.452936 36.457764 24.748944 C 36.24292 25.049725 35.957736 25.199973 35.599663 25.199973 L 35.440973 25.199973 C 35.211806 25.199973 35.00049 25.128244 34.804743 24.985014 C 34.608996 24.846559 34.491762 24.672082 34.453568 24.462012 L 34.080352 22.686683 L 31.366459 22.686683 L 31.02263 24.4409 C 30.979662 24.670067 30.858752 24.854236 30.658231 24.992691 C 30.452936 25.131147 30.213323 25.199973 29.941187 25.199973 L 29.783966 25.199973 C 29.425893 25.199973 29.141812 25.049725 28.931742 24.748944 C 28.721672 24.452936 28.673162 24.133057 28.787746 23.789306 L 30.957979 17.487369 C 31.082111 17.124521 31.297469 16.83566 31.603025 16.620816 C 31.90858 16.405972 32.21802 16.298378 32.533125 16.298378 z M 32.662428 18.153357 L 31.495762 21.368142 L 33.823216 21.368142 L 32.662428 18.153357 z "
     transform="matrix(1.3292422,0,0,2.0352743,-11.806902,-10.185342)" /></svg>
