<?xml version="1.0" encoding="UTF-8" standalone="no"?>
<!-- Created with Inkscape (http://www.inkscape.org/) -->

<svg
   id="SVGRoot"
   width="64px"
   height="64px"
   version="1.1"
   viewBox="0 0 64 64"
   xml:space="preserve"
   sodipodi:docname="ladspaIcon.svg"
   inkscape:version="1.2.2 (b0a8486541, 2022-12-01)"
   xmlns:inkscape="http://www.inkscape.org/namespaces/inkscape"
   xmlns:sodipodi="http://sodipodi.sourceforge.net/DTD/sodipodi-0.dtd"
   xmlns="http://www.w3.org/2000/svg"
   xmlns:svg="http://www.w3.org/2000/svg"><defs
     id="defs17"><rect
       x="0.09281749"
       y="11.608067"
       width="64.314894"
       height="37.798272"
       id="rect366" /><rect
       x="-0.23800572"
       y="0.042994199"
       width="64.171343"
       height="63.595173"
       id="rect360" /><rect
       x="3.1851037"
       y="13.179496"
       width="57.731326"
       height="38.818149"
       id="rect354" /></defs><sodipodi:namedview
     id="namedview15"
     pagecolor="#505050"
     bordercolor="#eeeeee"
     borderopacity="1"
     inkscape:showpageshadow="0"
     inkscape:pageopacity="0"
     inkscape:pagecheckerboard="0"
     inkscape:deskcolor="#505050"
     showgrid="false"
     inkscape:zoom="7.9225181"
     inkscape:cx="35.152965"
     inkscape:cy="38.371638"
     inkscape:window-width="1920"
     inkscape:window-height="1016"
     inkscape:window-x="0"
     inkscape:window-y="32"
     inkscape:window-maximized="1"
     inkscape:current-layer="SVGRoot"
     showguides="true"><sodipodi:guide
       position="-77.650872,97.001621"
       orientation="0.70710678,-0.70710678"
       id="guide293"
       inkscape:locked="false" /><sodipodi:guide
       position="8.9686845,34.918026"
       orientation="1,0"
       id="guide295"
       inkscape:locked="false" /><sodipodi:guide
       position="55.076427,32.054877"
       orientation="1,0"
       id="guide297"
       inkscape:locked="false" /><sodipodi:guide
       position="59.11423,41.375365"
       orientation="0,-1"
       id="guide418"
       inkscape:locked="false" /><sodipodi:guide
       position="60.217798,22.833532"
       orientation="0,-1"
       id="guide420"
       inkscape:locked="false" /><sodipodi:guide
       position="12.117359,62.611553"
       orientation="1,0"
       id="guide2438"
       inkscape:locked="false" /><sodipodi:guide
       position="51.372555,45.950183"
       orientation="1,0"
       id="guide2544"
       inkscape:locked="false" /></sodipodi:namedview><path
     id="text364"
     style="font-style:normal;font-variant:normal;font-weight:normal;font-stretch:normal;font-size:14.6667px;font-family:Likhan;-inkscape-font-specification:Likhan;text-align:center;letter-spacing:-2.26495px;white-space:pre;shape-inside:url(#rect366);display:inline;fill:#626262;stroke:none"
     d="M 16.997326 14.551838 C 14.119528 14.551838 11.80195 15.798406 11.80195 17.346302 L 11.80195 23.706778 C 11.80195 25.254673 14.119528 26.500282 16.997326 26.500282 L 48.876098 26.500282 C 51.753896 26.500282 54.06969 25.254673 54.06969 23.706778 L 54.06969 17.346302 C 54.06969 15.798406 51.753896 14.551838 48.876098 14.551838 L 16.997326 14.551838 z M 36.669104 16.168827 C 37.036726 16.168827 37.531053 16.245402 38.151713 16.39818 C 38.283672 16.429064 38.391627 16.497329 38.488913 16.58435 C 38.695644 16.385233 38.942923 16.283984 39.23111 16.283984 L 41.702125 16.283984 C 41.874 16.283984 42.022819 16.295619 42.151725 16.31949 C 42.848774 16.424525 43.432286 16.74925 43.900169 17.293522 C 44.283329 17.739238 44.501619 18.222579 44.571 18.738736 L 45.000975 17.487369 C 45.125107 17.124521 45.339489 16.83566 45.645045 16.620816 C 45.950601 16.405972 46.261254 16.298378 46.576359 16.298378 L 46.776181 16.298378 C 47.086511 16.298378 47.394802 16.405972 47.700358 16.620816 C 48.010689 16.83566 48.227432 17.114829 48.351564 17.45858 L 50.63703 23.789306 C 50.761163 24.133057 50.716281 24.452936 50.501437 24.748944 C 50.286593 25.049725 49.999561 25.199973 49.641488 25.199973 L 49.484485 25.199973 C 49.255318 25.199973 49.041514 25.128244 48.845768 24.985014 C 48.650021 24.846559 48.534273 24.672082 48.496079 24.462012 L 48.123196 22.686683 L 45.40954 22.686683 L 45.065204 24.4409 C 45.022235 24.670067 44.899979 24.854236 44.699458 24.992691 C 44.494162 25.131147 44.256159 25.199973 43.984023 25.199973 L 43.82702 25.199973 C 43.468946 25.199973 43.184277 25.049725 42.974207 24.748944 C 42.764138 24.452936 42.716894 24.133057 42.831477 23.789306 L 43.657528 21.390213 C 43.205514 21.830017 42.630466 22.055665 41.930493 22.062919 L 40.276608 22.084991 L 40.276608 24.190435 C 40.276608 24.486442 40.170887 24.736535 39.960818 24.941831 C 39.750748 25.147126 39.50802 25.245028 39.23111 25.23548 L 39.202564 25.23548 C 38.906557 25.245028 38.662045 25.145183 38.471072 24.935113 C 38.398897 24.869499 38.343605 24.794496 38.296228 24.715356 C 37.666071 25.176252 36.807434 25.407255 35.716381 25.407255 C 35.243724 25.407255 34.655488 25.302563 33.953664 25.092494 C 33.734045 25.039976 33.564546 24.909112 33.445188 24.699042 C 33.321056 24.488973 33.285623 24.270882 33.33814 24.046489 L 33.352413 24.01866 C 33.414479 23.77517 33.553271 23.592944 33.768115 23.473586 C 33.987733 23.349454 34.21865 23.328127 34.46214 23.40929 C 35.035057 23.590714 35.515211 23.681827 35.90193 23.681827 C 36.283875 23.681827 36.596891 23.598463 36.84038 23.431362 C 37.08387 23.264261 37.206126 23.047129 37.206126 22.779768 C 37.206126 22.507632 37.098044 22.285655 36.883199 22.11378 C 36.663581 21.941905 36.284424 21.757735 35.744927 21.561988 C 35.232756 21.378965 34.808834 21.163341 34.455003 20.92191 C 34.428925 22.166335 33.994095 23.178152 33.132966 23.946687 C 32.173329 24.782191 30.838589 25.199973 29.129386 25.199973 C 28.814281 25.199973 28.065416 25.170897 26.881386 25.113606 C 26.791023 25.109088 26.708791 25.089188 26.633393 25.057947 C 26.479585 25.149254 26.306147 25.199973 26.10886 25.199973 L 25.951857 25.199973 C 25.72269 25.199973 25.51067 25.128244 25.314923 24.985014 C 25.119177 24.846559 25.001645 24.672082 24.963451 24.462012 L 24.590568 22.686683 L 21.876912 22.686683 L 21.532575 24.4409 C 21.489607 24.670067 21.369135 24.854236 21.168614 24.992691 C 20.963318 25.131147 20.72353 25.199973 20.451395 25.199973 L 20.294392 25.199973 C 20.172527 25.199973 20.061913 25.176274 19.957192 25.141435 C 19.887452 25.159307 19.815368 25.171184 19.737744 25.171184 L 15.61998 25.171184 C 15.34307 25.171184 15.105645 25.076185 14.909898 24.885212 C 14.718925 24.69424 14.624438 24.457725 14.624438 24.17604 L 14.624438 17.27241 C 14.624438 16.985951 14.726012 16.737801 14.931307 16.527731 C 15.136603 16.312887 15.345682 16.205293 15.555752 16.205293 L 15.577161 16.205293 C 15.944783 16.205293 16.237117 16.308041 16.456735 16.513337 C 16.676354 16.718632 16.784437 16.971628 16.779662 17.27241 L 16.658342 23.48798 L 19.445147 23.365147 L 21.468347 17.487369 C 21.592479 17.124521 21.80686 16.83566 22.112416 16.620816 C 22.417972 16.405972 22.728626 16.298378 23.04373 16.298378 L 23.245337 16.298378 C 23.555667 16.298378 23.862174 16.405972 24.16773 16.620816 C 24.47806 16.83566 24.696588 17.114829 24.82072 17.45858 L 26.228396 21.360465 L 26.228396 16.971084 C 26.228396 16.78966 26.291597 16.632623 26.415729 16.498942 C 26.535087 16.379585 26.68569 16.309798 26.867113 16.290701 C 27.89359 16.219086 28.569228 16.183222 28.893881 16.183222 C 30.49805 16.183222 31.826281 16.594214 32.881404 17.415396 C 33.088268 17.576394 33.26996 17.752583 33.436267 17.937439 C 33.588314 17.541067 33.833438 17.195608 34.198089 16.914465 C 34.823524 16.408388 35.647402 16.159278 36.669104 16.168827 z M 40.276608 17.092958 L 40.276608 21.067775 L 41.307833 21.067775 C 41.665907 21.067775 41.978922 20.924316 42.246284 20.637858 C 42.518419 20.351399 42.653065 19.833772 42.653065 19.084205 C 42.653065 18.339412 42.518419 17.820826 42.246284 17.529593 C 41.974148 17.23836 41.661132 17.092958 41.307833 17.092958 L 40.276608 17.092958 z M 28.872472 17.214832 C 28.681499 17.214832 28.516724 17.281715 28.378269 17.415396 C 28.244588 17.549077 28.176662 17.718708 28.176662 17.924004 L 28.176662 23.516769 C 28.176662 23.712516 28.244588 23.880205 28.378269 24.01866 C 28.516724 24.157115 28.681499 24.225941 28.872472 24.225941 L 28.879608 24.225941 C 29.796276 24.225941 30.57585 23.930292 31.220382 23.338277 C 31.807622 22.803554 32.101741 21.772186 32.101741 20.244406 C 32.101741 19.356384 31.807622 18.641993 31.220382 18.102496 C 30.57585 17.510481 29.796276 17.214832 28.879608 17.214832 L 28.872472 17.214832 z M 36.512101 17.875062 C 36.176706 17.885804 35.912128 17.969403 35.716381 18.124568 C 35.506311 18.291669 35.40059 18.497165 35.40059 18.740655 C 35.40059 18.984145 35.520484 19.181892 35.7592 19.33467 C 35.993141 19.487448 36.463846 19.697791 37.170444 19.965152 C 37.549859 20.107433 37.876835 20.27396 38.157066 20.462244 L 38.157066 18.061232 C 38.021068 18.098634 37.879266 18.101003 37.728875 18.060272 C 37.253831 17.926591 36.847497 17.86432 36.512101 17.875062 z M 23.173972 18.153357 L 22.005369 21.368142 L 24.333654 21.368142 L 23.173972 18.153357 z M 46.704816 18.153357 L 45.537997 21.368142 L 47.864498 21.368142 L 46.704816 18.153357 z "
     transform="matrix(1.0947234,0,0,2.0352743,-4.1464328,-10.185342)" /></svg>
