<?xml version="1.0" encoding="UTF-8" standalone="no"?>
<svg
   width="256"
   height="256"
   viewBox="0 0 256 256"
   fill="none"
   version="1.1"
   id="svg2"
   sodipodi:docname="logo.svg"
   xml:space="preserve"
   inkscape:version="1.4.3 (fcd0343856, 2026-01-01)"
   xmlns:inkscape="http://www.inkscape.org/namespaces/inkscape"
   xmlns:sodipodi="http://sodipodi.sourceforge.net/DTD/sodipodi-0.dtd"
   xmlns="http://www.w3.org/2000/svg"
   xmlns:svg="http://www.w3.org/2000/svg"><defs
     id="defs2" /><sodipodi:namedview
     id="namedview2"
     pagecolor="#505050"
     bordercolor="#ffffff"
     borderopacity="1"
     inkscape:showpageshadow="0"
     inkscape:pageopacity="0"
     inkscape:pagecheckerboard="1"
     inkscape:deskcolor="#505050"
     showguides="true"
     inkscape:zoom="4.8751698"
     inkscape:cx="183.78847"
     inkscape:cy="97.945306"
     inkscape:window-width="3753"
     inkscape:window-height="2062"
     inkscape:window-x="0"
     inkscape:window-y="0"
     inkscape:window-maximized="1"
     inkscape:current-layer="svg2"><sodipodi:guide
       position="-46.306079,99.184949"
       orientation="0,-1"
       id="guide2"
       inkscape:locked="false" /><sodipodi:guide
       position="-65.587459,166.3621"
       orientation="0,-1"
       id="guide4"
       inkscape:locked="false" /><sodipodi:guide
       position="-64.510574,88.518654"
       orientation="0,-1"
       id="guide5"
       inkscape:locked="false" /><sodipodi:guide
       position="129.48267,475.94106"
       orientation="1,0"
       id="guide9"
       inkscape:locked="false" /><sodipodi:guide
       position="174.14778,143.90134"
       orientation="1,0"
       id="guide10"
       inkscape:locked="false" /><sodipodi:guide
       position="-65.484899,155.9522"
       orientation="0,-1"
       id="guide11"
       inkscape:locked="false" /><sodipodi:guide
       position="111.6102,126.9847"
       orientation="0,-1"
       id="guide12"
       inkscape:locked="false" /><sodipodi:guide
       position="83.17659,166.97746"
       orientation="1,0"
       id="guide13"
       inkscape:locked="false" /></sodipodi:namedview><path
     d="m 13.605828,98.58017 c 0,-4.4183 3.581712,-8.010361 8,-8 l 61.85106,0.145042 c 4.67711,0.210333 6.147635,4.595069 2.601242,9.578838 -3.454623,4.8548 -8.694409,15.10273 -8.764075,28.75798 -0.07152,14.01868 4.657384,23.20469 8.253961,28.04616 3.148473,4.23827 4.050525,9.59415 -2.032808,9.77966 l -61.90938,-0.30768 c -4.418245,-0.022 -8,-3.582 -8,-8 z"
     fill="#66cc00"
     stroke="#000000"
     stroke-width="1.5"
     id="path1"
     sodipodi:nodetypes="sscssscsss" /><rect
     x="98.605827"
     y="90.58017"
     width="28"
     height="76"
     rx="10"
     fill="#d2691e"
     stroke="#000000"
     stroke-width="1.5"
     id="rect1" /><rect
     x="132.60583"
     y="90.58017"
     width="28"
     height="76"
     rx="10"
     fill="#d2691e"
     stroke="#000000"
     stroke-width="1.5"
     id="rect2" /><path
     d="m 179.13691,92.248985 c -9.65264,-4.561854 -10.42468,1.705124 -5.07374,9.419785 3.78862,5.46221 7.7739,16.926 7.86733,27.42159 0.11458,12.87243 -4.26113,21.37428 -7.91586,27.80754 -1.72772,3.04123 -4.90169,11.46698 4.86977,7.83292 l 63.3638,-30.50109 c 9.45636,-3.60292 2.84112,-6.59686 -0.43105,-8.12409 z"
     fill="#008ed4"
     stroke="#000000"
     stroke-width="1.59175"
     stroke-linejoin="round"
     id="path2"
     sodipodi:nodetypes="cssscccc" /></svg>
