<?xml version="1.0" encoding="UTF-8" standalone="no"?>
<svg
   xmlns:dc="http://purl.org/dc/elements/1.1/"
   xmlns:cc="http://creativecommons.org/ns#"
   xmlns:rdf="http://www.w3.org/1999/02/22-rdf-syntax-ns#"
   xmlns:svg="http://www.w3.org/2000/svg"
   xmlns="http://www.w3.org/2000/svg"
   id="svg845"
   version="1.1"
   viewBox="0 0 16.933333 16.933333"
   height="64"
   width="64">
  <defs
     id="defs839" />
  <metadata
     id="metadata842">
    <rdf:RDF>
      <cc:Work
         rdf:about="">
        <dc:format>image/svg+xml</dc:format>
        <dc:type
           rdf:resource="http://purl.org/dc/dcmitype/StillImage" />
        <dc:title></dc:title>
      </cc:Work>
    </rdf:RDF>
  </metadata>
  <g
     id="layer1">
    <path
       transform="scale(0.26458333)"
       d="m 32,14 -4,2 -4.035156,12.107422 -1.603516,-2.642578 A 1.9999999,1.9999999 0 0 0 23,24 a 1.9999999,1.9999999 0 0 0 -2,-2 1.9999999,1.9999999 0 0 0 -2,2 1.9999999,1.9999999 0 0 0 2,2 1.9999999,1.9999999 0 0 0 0.480469,-0.05859 L 23.548828,29.351562 16,52 H 48 L 36,16 Z m -3,3 h 3 3 l 8,24 H 33 V 20 H 31 V 39.703125 L 24.824219,29.525391 Z M 24.410156,30.769531 30.615234,41 H 21 Z"
       style="opacity:1;fill:#000000;fill-opacity:1;stroke:none;stroke-width:0.999999;stroke-opacity:0"
       id="rect1410" />
  </g>
  <path
     style="fill:#ffff00;stroke-width:0.0768307;stroke-opacity:0"
     d="m 16.06836,51.932776 c 0,-0.03185 1.690786,-5.130012 3.757303,-11.32924 l 3.757304,-11.271325 -1.01517,-1.67436 -1.015171,-1.67436 -0.57538,-0.04124 c -1.227682,-0.088 -1.97478,-0.913465 -1.899319,-2.098548 0.04221,-0.662882 0.336517,-1.147673 0.902939,-1.487341 0.498719,-0.299068 0.947778,-0.377055 1.461506,-0.253813 1.080556,0.259222 1.739167,1.358295 1.436288,2.396844 -0.07004,0.240167 -0.213485,0.539035 -0.318764,0.664152 -0.105279,0.125117 -0.191416,0.265251 -0.191416,0.311409 0,0.110723 1.534045,2.62183 1.600487,2.619868 0.02826,-8.38e-4 0.946821,-2.709124 2.041258,-6.018421 l 1.989885,-6.016903 2.006711,-1.002506 2.006713,-1.002506 1.993656,1.008922 1.993655,1.008921 5.938201,17.82473 c 3.266011,9.803602 5.957601,17.885234 5.981312,17.959184 0.04096,0.127758 -0.751094,0.134454 -15.904444,0.134454 -8.771155,0 -15.947554,-0.02606 -15.947554,-0.05792 z M 29.41617,38.946943 c -0.685834,-1.131326 -2.076742,-3.429284 -3.090907,-5.106572 -1.014166,-1.67729 -1.876314,-3.040027 -1.915885,-3.028306 -0.06135,0.01817 -3.423851,9.970351 -3.423851,10.13377 0,0.03193 2.177463,0.05806 4.838806,0.05806 h 4.838807 z m 13.600899,1.960918 c -0.01942,-0.05282 -1.823975,-5.46402 -4.010112,-12.024886 l -3.974795,-11.928847 -3.040882,0.02008 -3.040882,0.02008 -2.064459,6.184874 C 25.750486,26.58085 24.834314,29.43705 24.85,29.52628 c 0.03363,0.191287 6.058236,10.164351 6.14273,10.168599 0.03169,0.0016 0.05762,-4.422553 0.05762,-9.831436 v -9.834334 h 0.960384 0.960384 v 10.487395 10.487395 h 5.040633 c 4.000122,0 5.033343,-0.01982 5.005315,-0.09604 z"
     id="path840"
     transform="scale(0.26458333)" />
</svg>
