<?xml version="1.0" encoding="UTF-8" standalone="no"?>
<svg
   xmlns:dc="http://purl.org/dc/elements/1.1/"
   xmlns:cc="http://creativecommons.org/ns#"
   xmlns:rdf="http://www.w3.org/1999/02/22-rdf-syntax-ns#"
   xmlns:svg="http://www.w3.org/2000/svg"
   xmlns="http://www.w3.org/2000/svg"
   id="svg845"
   version="1.1"
   viewBox="0 0 16.933333 16.933333"
   height="64"
   width="64">
  <defs
     id="defs839" />
  <metadata
     id="metadata842">
    <rdf:RDF>
      <cc:Work
         rdf:about="">
        <dc:format>image/svg+xml</dc:format>
        <dc:type
           rdf:resource="http://purl.org/dc/dcmitype/StillImage" />
        <dc:title></dc:title>
      </cc:Work>
    </rdf:RDF>
  </metadata>
  <g
     id="layer1">
    <path
       transform="scale(0.26458333)"
       d="m 32,14 -4,2 -4.035156,12.107422 -1.603516,-2.642578 A 1.9999999,1.9999999 0 0 0 23,24 a 1.9999999,1.9999999 0 0 0 -2,-2 1.9999999,1.9999999 0 0 0 -2,2 1.9999999,1.9999999 0 0 0 2,2 1.9999999,1.9999999 0 0 0 0.480469,-0.05859 L 23.548828,29.351562 16,52 H 48 L 36,16 Z m -3,3 h 3 3 l 8,24 H 33 V 20 H 31 V 39.703125 L 24.824219,29.525391 Z M 24.410156,30.769531 30.615234,41 H 21 Z"
       style="opacity:1;fill:#000000;fill-opacity:1;stroke:none;stroke-width:0.999999;stroke-opacity:0"
       id="rect1410" />
  </g>
</svg>
