<?xml version="1.0" encoding="UTF-8" standalone="no"?>
<!-- Created with Inkscape (http://www.inkscape.org/) -->

<svg
   id="SVGRoot"
   width="64px"
   height="64px"
   version="1.1"
   viewBox="0 0 64 64"
   sodipodi:docname="newProjectButton.svg"
   inkscape:version="1.2.2 (b0a8486541, 2022-12-01)"
   xmlns:inkscape="http://www.inkscape.org/namespaces/inkscape"
   xmlns:sodipodi="http://sodipodi.sourceforge.net/DTD/sodipodi-0.dtd"
   xmlns="http://www.w3.org/2000/svg"
   xmlns:svg="http://www.w3.org/2000/svg">
  <defs
     id="defs735" />
  <sodipodi:namedview
     id="namedview733"
     pagecolor="#505050"
     bordercolor="#eeeeee"
     borderopacity="1"
     inkscape:showpageshadow="0"
     inkscape:pageopacity="0"
     inkscape:pagecheckerboard="0"
     inkscape:deskcolor="#505050"
     showgrid="true"
     inkscape:zoom="4.9423618"
     inkscape:cx="14.062103"
     inkscape:cy="37.431497"
     inkscape:window-width="1920"
     inkscape:window-height="1016"
     inkscape:window-x="0"
     inkscape:window-y="32"
     inkscape:window-maximized="1"
     inkscape:current-layer="SVGRoot">
    <inkscape:grid
       type="xygrid"
       id="grid787" />
  </sodipodi:namedview>
  <path
     d="m 44.834507,40.057555 c 1.464436,-0.305913 3.022317,-1.523219 3.656146,-2.856865 0.778011,-1.636995 0.629103,-25.860473 -0.168501,-27.4112841 -1.731947,-3.36784 -1.693145,-3.3612824 -19.872219,-3.3612824 -17.665591,0 -17.238178,-0.053738 -19.0391813,2.3954534 L 8.5175411,10.038336 8.4364448,23.359469 8.355351,36.680602 9.0870999,37.849714 c 1.5656751,2.501566 1.4416411,2.485471 19.0601331,2.477465 8.488769,-0.0038 15.99784,-0.124822 16.687568,-0.268867 z M 13.324067,35.82821 12.413173,35.122799 V 11.638362 l 1.821872,-1.410803 h 28.821924 l 0.847285,0.657651 c 1.018753,0.790726 1.011546,0.671967 0.893378,14.627527 l -0.08117,9.585902 -1.59375,1.434904 H 14.234584 Z m 9.965442,-4.263495 c 0.735646,-1.237498 -0.07319,-1.753753 -2.747851,-1.753753 -2.406087,0 -3.42065,0.378982 -3.42065,1.277694 0,1.212971 5.479108,1.635803 6.168501,0.476008 z m 16.070752,-0.584573 v -1.022973 l -5.608002,-0.08 c -5.5723,-0.0795 -5.609762,-0.07578 -5.886659,0.584573 -0.662357,1.579511 -0.191699,1.708702 5.909789,1.621325 l 5.584872,-0.07992 z M 23.55769,25.483663 c 0.18719,-1.188785 -0.464632,-1.518449 -3.002874,-1.518449 -2.711143,0 -4.111216,1.046648 -2.881355,2.153932 0.663673,0.597501 5.776956,0.04521 5.884145,-0.635534 z m 15.937499,0.280491 c 0.872343,-1.467522 -0.198496,-1.798889 -5.812238,-1.798889 -5.89043,0 -6.738134,0.25748 -5.837213,1.772915 0.504717,0.849037 11.146276,0.872746 11.649116,0.02598 z M 19.739461,18.693785 c 0.71984,-0.346833 0.872846,-1.990675 0.238388,-2.561861 -0.617327,-0.555779 -2.140001,-0.426145 -2.520902,0.214618 -1.008612,1.69678 0.472133,3.219572 2.282556,2.347252 z m 6.852111,-0.181166 c 0.769822,-0.627214 0.757084,-1.630864 -0.02883,-2.271201 -1.477343,-1.203688 -3.581391,0.526747 -2.480256,2.039814 0.602544,0.827908 1.657526,0.925207 2.509085,0.231413 z m 6.944047,-0.232681 c 0.891786,-1.22532 0.135666,-2.485471 -1.496618,-2.494328 -1.110857,-0.006 -1.607076,0.502545 -1.607076,1.647045 0,1.589304 2.138745,2.173094 3.103694,0.84724 z m 6.528114,-0.04799 c 0.77796,-1.068961 0.05251,-2.304671 -1.352973,-2.304671 -1.405521,0 -2.130951,1.23571 -1.352974,2.304671 0.349775,0.480598 0.852145,0.764402 1.352974,0.764402 0.500828,0 1.003248,-0.283796 1.352973,-0.764402 z"
     fill="#626262"
     stroke-width="0.308046"
     id="path730"
     sodipodi:nodetypes="cscsccccccccccccccscccccssccccscccccsccccscccccccccscccccscccsssc" />
  <path
     sodipodi:type="star"
     style="fill:#626262;fill-opacity:1;stroke-width:1.00157"
     id="path895"
     inkscape:flatsided="false"
     sodipodi:sides="6"
     sodipodi:cx="48.184803"
     sodipodi:cy="8.0197372"
     sodipodi:r1="7.5333513"
     sodipodi:r2="2.2956271"
     sodipodi:arg1="1.4900729"
     sodipodi:arg2="2.0136716"
     inkscape:rounded="0"
     inkscape:randomized="0"
     d="M 48.792261,15.528557 47.201037,10.09389 41.985703,12.300221 45.896651,8.2048471 41.378245,4.791401 46.880417,6.1306947 47.577345,0.51091718 49.168569,5.9455848 54.383903,3.7392534 50.472955,7.8346274 54.991361,11.248073 49.489189,9.9087798 Z" />
</svg>
