<?xml version="1.0" encoding="UTF-8" standalone="no"?>
<!DOCTYPE svg PUBLIC "-//W3C//DTD SVG 1.1//EN" "http://www.w3.org/Graphics/SVG/1.1/DTD/svg11.dtd">
<svg width="100%" height="100%" viewBox="0 0 1280 800" version="1.1" xmlns="http://www.w3.org/2000/svg" xmlns:xlink="http://www.w3.org/1999/xlink" xml:space="preserve" xmlns:serif="http://www.serif.com/" style="fill-rule:evenodd;clip-rule:evenodd;stroke-linejoin:round;stroke-miterlimit:2;">
    <path id="Play" d="M16,32L16,64L48,48L16,32Z"/>
    <path id="Plug" d="M744,32L744,20L748,20L748,32L756,32L756,20L760,20L760,32L768,32C768,54.164 761.892,55.86 754,55.989L754,76L750,76L750,55.989C742.108,55.86 736,54.164 736,32L744,32ZM747,22L745,22L745,32L747,32L747,22ZM759,22L757,22L757,32L759,32L759,22Z"/>
    <path id="Pause" d="M96,32L107.044,32L107.044,64L96,64L96,32ZM116.98,32L128,32L128,64L116.98,64L116.98,32Z"/>
    <rect id="Stop" x="176" y="32" width="32" height="32"/>
    <circle id="Record" cx="272" cy="48" r="16"/>
    <path id="Open" d="M328,40L328,64L376,64L376,32L344,32L344,40L328,40ZM342,38L328,38L328,30L342,30L342,38Z"/>
    <path id="Save" d="M424,47.059L424,64L456,64L456,41.412L434.667,41.412L434.667,47.059L424,47.059ZM433.333,45.647L424,45.647L424,40L433.333,40L433.333,45.647ZM418,38L412,32L416,28L422,34L424,32L424,40L416,40L418,38Z"/>
    <path id="PianoH" d="M488,72L488,24L534,24L534,72L488,72ZM496,54L496,26L502,26L502,70L510,70L510,54L508,54L508,26L514,26L514,54L512,54L512,70L520,70L520,26L526,26L526,54L522,54L522,70L532,70L532,26L490,26L490,70L500,70L500,54L496,54Z"/>
    <g id="PianoV" transform="matrix(6.25635e-17,-1.02174,1.02083,6.2508e-17,542.5,570.609)">
        <path d="M488,72L488,24L534,24L534,72L488,72ZM495.83,52.408L495.83,25.959L501.702,25.959L501.702,70.041L509.532,70.041L509.532,52.408L507.574,52.408L507.574,25.959L511.489,25.959L509.532,25.959L513.447,25.959L513.447,52.408L511.489,52.408L511.489,70.041L520.298,70.041L520.298,25.959L526.17,25.959L526.17,52.408L522.255,52.408L522.255,70.041L532.043,70.041L532.043,25.959L489.957,25.959L490,70L499.745,70.041L499.745,52.408L495.83,52.408Z"/>
    </g>
    <path id="Curve" d="M657.743,31.302C656.691,30.581 656,29.371 656,28C656,25.792 657.792,24 660,24C662.208,24 664,25.792 664,28C664,28.913 663.693,29.756 663.177,30.429L674.572,47.263C675.016,47.093 675.497,47 676,47C677.093,47 678.085,47.44 678.807,48.151L688.207,33.272C688.073,32.872 688,32.445 688,32C688,29.792 689.792,28 692,28C694.208,28 696,29.792 696,32C696,33.581 695.08,34.95 693.747,35.599L696.298,56.011C698.367,56.164 700,57.893 700,60C700,62.208 698.208,64 696,64C693.792,64 692,62.208 692,60C692,58.39 692.954,57 694.327,56.366L691.781,35.994C690.827,35.942 689.961,35.556 689.299,34.95L679.837,49.866C679.943,50.226 680,50.606 680,51C680,53.208 678.208,55 676,55C673.792,55 672,53.208 672,51C672,50.018 672.354,49.119 672.942,48.423L661.604,31.665C661.113,31.88 660.57,32 660,32C659.874,32 659.75,31.994 659.627,31.983L650.105,64.599C651.242,65.304 652,66.564 652,68C652,70.208 650.208,72 648,72C645.792,72 644,70.208 644,68C644,65.792 645.792,64 648,64C648.065,64 648.13,64.002 648.194,64.005L657.743,31.302Z"/>
</svg>
