<?xml version="1.0" encoding="UTF-8" standalone="no"?>
<!-- Created with Inkscape (http://www.inkscape.org/) -->

<svg
   id="SVGRoot"
   width="64px"
   height="64px"
   version="1.1"
   viewBox="0 0 64 64"
   sodipodi:docname="pluginsButton.svg"
   inkscape:version="1.2.2 (b0a8486541, 2022-12-01)"
   xmlns:inkscape="http://www.inkscape.org/namespaces/inkscape"
   xmlns:sodipodi="http://sodipodi.sourceforge.net/DTD/sodipodi-0.dtd"
   xmlns="http://www.w3.org/2000/svg"
   xmlns:svg="http://www.w3.org/2000/svg">
  <defs
     id="defs912" />
  <sodipodi:namedview
     id="namedview910"
     pagecolor="#505050"
     bordercolor="#eeeeee"
     borderopacity="1"
     inkscape:showpageshadow="0"
     inkscape:pageopacity="0"
     inkscape:pagecheckerboard="0"
     inkscape:deskcolor="#505050"
     showgrid="false"
     inkscape:zoom="13.21875"
     inkscape:cx="27.990544"
     inkscape:cy="32"
     inkscape:window-width="1920"
     inkscape:window-height="1016"
     inkscape:window-x="0"
     inkscape:window-y="32"
     inkscape:window-maximized="1"
     inkscape:current-layer="SVGRoot" />
  <path
     d="m 17.59113,44.07342 c 1.1678,-1.307 1.2696,-3.1187 0.26745,-4.7623 -1.7064,-2.7988 -5.9335,-2.1142 -6.8223,1.1049 -1.1047,4.0007 3.8019,6.7385 6.5548,3.6574 z m 16.638,0.35831 c 0.28853,-0.58205 0.30403,-1.1046 0.05402,-1.8218 -0.43185,-1.2388 -0.45799,-1.2136 1.8983,-1.8273 17.9,-4.6624 14.629,-30.804 -3.8487,-30.756 -17.671,0.04546 -20.654,27.812 -3.3038,30.753 2.6554,0.45012 2.593,0.39554 2.0197,1.7676 -1.0066,2.4091 2.0288,4.2083 3.1804,1.8851 z m -5.2578,-8.5626 c -8.0053,-2.8604 -9.8412,-12.859 -3.3962,-18.497 6.281,-5.4944 15.826,-2.4429 17.92,5.7287 2.0785,8.1132 -6.4839,15.641 -14.523,12.768 z m 6.4504,-5.6593 c 3.6506,-2.426 3.2943,-7.8685 -0.62871,-9.6038 -5.8739,-2.5983 -10.245,5.9619 -4.9052,9.6066 1.5381,1.0499 3.9516,1.0487 5.5339,-0.0028 z m 17.698,14.041 c 1.8393,-1.8393 1.5215,-5.1492 -0.5997,-6.2461 -4.424,-2.2878 -8.2129,4.1549 -3.9663,6.7443 1.7059,1.0401 3.1895,0.87824 4.566,-0.49823 z m -42.418,-16.927 c 1.4881,-1.3467 0.14598,-4.0016 -1.6955,-3.354 -1.2858,0.45218 -1.7501,1.8767 -0.98984,3.037 0.66642,1.0171 1.7681,1.1472 2.6854,0.31703 z m 45.992,-0.11857 c 1.1045,-1.1045 0.17168,-3.4366 -1.3747,-3.4366 -0.68964,0 -2.062,1.5175 -2.062,2.2802 0,0.70107 1.278,1.8438 2.062,1.8438 0.37803,0 0.99662,-0.3093 1.3747,-0.68733 z m -40.417,-13.58 c 3.3318,-1.581 2.8551,-6.9201 -0.67693,-7.5827 -4.442,-0.83333 -6.533,5.8184 -2.3956,7.6206 1.3621,0.59332 1.7524,0.5885 3.0725,-0.03794 z m 35.436,0.17738 c 2.0869,0 3.3351,-4.097 1.8308,-6.0094 -3.108,-3.9512 -8.6463,-0.24606 -6.3294,4.2344 0.61102,1.1816 2.5779,2.2362 3.58,1.9196 0.25173,-0.07953 0.66512,-0.1446 0.91864,-0.1446 z m -17.7,-7.9043 c 0.83625,-0.83625 -3.093,-2.8889 -3.093,-1.0235 0,1.6532 1.8508,2.2657 3.093,1.0235 z"
     fill="#626262"
     stroke-width="0.34366"
     id="path907"
     sodipodi:nodetypes="cccccccccsccccccccsccssccccccsccccssscccccccccssccsss" />
</svg>
