<?xml version="1.0" encoding="UTF-8"?>
<!-- Created with Inkscape (http://www.inkscape.org/) -->
<svg id="SVGRoot" width="64px" height="64px" version="1.1" viewBox="0 0 64 64" xmlns="http://www.w3.org/2000/svg">
 <path d="m18.865 55.752c0.08108-0.68202 0.32623-0.9234 1.0201-1.0045 2.5952-0.30325 1.9612-3.7648-0.73144-3.9937l-1.2546-0.10666v3.1424c0 3.0369 0.67508 4.4085 0.96589 1.9625zm0.0651-2.8295c0-0.63005 0.18329-0.85916 0.68733-0.85916 0.50404 0 0.68733 0.22911 0.68733 0.85916 0 0.63005-0.18329 0.85916-0.68733 0.85916-0.50404 0-0.68733-0.22911-0.68733-0.85916zm7.1329 3.3507c0.09753-0.29659-0.29316-0.42958-1.262-0.42958h-1.4033v-2.5775c0-1.4892-0.1451-2.5775-0.34366-2.5775-0.39167 0-0.48371 5.5877-0.09838 5.973 0.39849 0.39849 2.9536 0.07905 3.1074-0.38847zm4.048 0.11975c0.91589-0.66971 1.2419-5.7043 0.36938-5.7043-0.45049 0-0.55306 0.40648-0.55306 2.1917 0 2.4394-0.57993 3.4217-1.5465 2.6196-0.35961-0.29845-0.5155-1.0906-0.5155-2.6196 0-1.7191-0.11116-2.1917-0.5155-2.1917-0.91387 0-0.7155 4.5982 0.23663 5.4852 0.88224 0.82193 1.6133 0.88537 2.5245 0.21906zm5.2385-0.05332c1.2381-0.86718 1.0615-2.558-0.26719-2.558-0.56704 0-1.031 0.15465-1.031 0.34366s0.23197 0.34366 0.5155 0.34366c0.28352 0 0.5155 0.23197 0.5155 0.5155 0 0.76584-1.2924 0.62405-1.7278-0.18956-0.76559-1.4305 0.55205-3.6877 1.3939-2.3879 0.29385 0.45369 0.373 0.45464 0.66016 0.0078 0.43903-0.68307-0.57059-1.7898-1.5101-1.6554-1.9759 0.28268-2.3953 4.734-0.53446 5.672 1.0854 0.5471 1.0725 0.5477 1.9855-0.0918zm13.072-0.06643c-9.9022-20.79-4.9511-10.395 0 0zm-0.19507-0.06298c0.57764-0.7943 0.43954-2.5549-1.1803-3.0691-1.1722-0.37206-0.86236-1.2957 0.3457-1.0303 1.2462 0.27372 1.4695-0.60028 0.31166-1.22-1.9772-1.0582-3.6202 1.1661-1.9332 2.6172 0.48847 0.42016 1.081 0.82822 1.3167 0.90679 0.26129 0.08709 0.33456 0.38781 0.18774 0.77044-0.22078 0.57535-0.29094 0.58223-0.84292 0.08269-0.42087-0.38088-0.75489-0.44458-1.1097-0.21163-0.42805 0.281-0.38044 0.43993 0.30367 1.0136 0.97788 0.82002 2.0231 0.9346 2.6008 0.1403zm-10.051-2.6004c0-1.7183-0.14151-2.9211-0.34366-2.9211-0.18902 0-0.34366 0.59701-0.34366 1.3267 0 0.72968-0.09835 2.0442-0.21854 2.9211-0.18314 1.3361-0.12746 1.5944 0.34366 1.5944 0.4764 0 0.56221-0.44581 0.56221-2.9211zm2.4197 1.4606 0.01409-1.4606 1.3213 1.4606c1.7411 1.9246 1.7434 1.9227 1.7434-1.4606 0-3.1661-0.58564-4.0495-0.75528-1.1393l-0.10387 1.7819-1.2028-1.5994c-1.7419-2.3162-2.062-2.141-2.062 1.1286 0 2.2147 0.10024 2.7493 0.5155 2.7493 0.37515 0 0.51934-0.39766 0.52959-1.4606zm-23.004-10.997c1.1678-1.307 1.2696-3.1187 0.26745-4.7623-1.7064-2.7988-5.9335-2.1142-6.8223 1.1049-1.1047 4.0007 3.8019 6.7385 6.5548 3.6574zm16.638 0.35831c0.28853-0.58205 0.30403-1.1046 0.05402-1.8218-0.43185-1.2388-0.45799-1.2136 1.8983-1.8273 17.9-4.6624 14.629-30.804-3.8487-30.756-17.671 0.04546-20.654 27.812-3.3038 30.753 2.6554 0.45012 2.593 0.39554 2.0197 1.7676-1.0066 2.4091 2.0288 4.2083 3.1804 1.8851zm-5.2578-8.5626c-8.0053-2.8604-9.8412-12.859-3.3962-18.497 6.281-5.4944 15.826-2.4429 17.92 5.7287 2.0785 8.1132-6.4839 15.641-14.523 12.768zm6.4504-5.6593c3.6506-2.426 3.2943-7.8685-0.62871-9.6038-5.8739-2.5983-10.245 5.9619-4.9052 9.6066 1.5381 1.0499 3.9516 1.0487 5.5339-0.0028zm17.698 14.041c1.8393-1.8393 1.5215-5.1492-0.5997-6.2461-4.424-2.2878-8.2129 4.1549-3.9663 6.7443 1.7059 1.0401 3.1895 0.87824 4.566-0.49823zm-42.418-16.927c1.4881-1.3467 0.14598-4.0016-1.6955-3.354-1.2858 0.45218-1.7501 1.8767-0.98984 3.037 0.66642 1.0171 1.7681 1.1472 2.6854 0.31703zm45.992-0.11857c1.1045-1.1045 0.17168-3.4366-1.3747-3.4366-0.68964 0-2.062 1.5175-2.062 2.2802 0 0.70107 1.278 1.8438 2.062 1.8438 0.37803 0 0.99662-0.3093 1.3747-0.68733zm-40.417-13.58c3.3318-1.581 2.8551-6.9201-0.67693-7.5827-4.442-0.83333-6.533 5.8184-2.3956 7.6206 1.3621 0.59332 1.7524 0.5885 3.0725-0.03794zm35.436 0.17738c2.0869 0 3.3351-4.097 1.8308-6.0094-3.108-3.9512-8.6463-0.24606-6.3294 4.2344 0.61102 1.1816 2.5779 2.2362 3.58 1.9196 0.25173-0.07953 0.66512-0.1446 0.91864-0.1446zm-17.7-7.9043c0.83625-0.83625-3.093-2.8889-3.093-1.0235 0 1.6532 1.8508 2.2657 3.093 1.0235z" fill="#626262" stroke-width=".34366"/>
</svg>
