<?xml version="1.0" encoding="UTF-8" standalone="no"?>
<!-- Created with Inkscape (http://www.inkscape.org/) -->

<svg
   id="SVGRoot"
   width="64px"
   height="64px"
   version="1.1"
   viewBox="0 0 64 64"
   sodipodi:docname="presetsButton.svg"
   inkscape:version="1.2.2 (b0a8486541, 2022-12-01)"
   xmlns:inkscape="http://www.inkscape.org/namespaces/inkscape"
   xmlns:sodipodi="http://sodipodi.sourceforge.net/DTD/sodipodi-0.dtd"
   xmlns="http://www.w3.org/2000/svg"
   xmlns:svg="http://www.w3.org/2000/svg">
  <defs
     id="defs7" />
  <sodipodi:namedview
     id="namedview5"
     pagecolor="#505050"
     bordercolor="#eeeeee"
     borderopacity="1"
     inkscape:showpageshadow="0"
     inkscape:pageopacity="0"
     inkscape:pagecheckerboard="0"
     inkscape:deskcolor="#505050"
     showgrid="false"
     inkscape:zoom="13.21875"
     inkscape:cx="27.990544"
     inkscape:cy="32"
     inkscape:window-width="1920"
     inkscape:window-height="1016"
     inkscape:window-x="0"
     inkscape:window-y="32"
     inkscape:window-maximized="1"
     inkscape:current-layer="SVGRoot" />
  <path
     d="m 16.8556,44.53411 c 0.30624,-0.30624 0.44532,-2.1606 0.44532,-5.9376 v -5.4923 h -1.2989 c -2.8154,0 -2.7833,0.16711 -2.7833,-14.473 v -12.989 h -1.1074 c -0.69912,0 -1.5543,0.39913 -2.3194,1.0825 l -1.2119,1.0825 -0.11136,16.26 c -0.12138,17.724 -0.14596,17.36 1.2871,19.063 1.489,1.7696 5.8681,2.6354 7.0998,1.4037 z m 14.835,-5.5851 0.1022,-5.8448 h -1.2872 c -2.4319,0 -2.4426,-0.06411 -2.4426,-14.555 v -12.906 h -4.3391 l -0.24258,4.5115 c -0.13342,2.4813 -0.24258,8.4873 -0.24258,13.347 0,9.6326 0.0067,9.6034 -2.2022,9.6034 -0.77807,0 -1.2551,10.892 -0.50968,11.637 0.1413,0.1413 2.688,0.21088 5.6593,0.15462 l 5.4024,-0.10229 z m 13.969,5.8051 c 0.50009,-0.1919 0.587,-1.071 0.587,-5.9376 v -5.7123 h -1.0923 c -2.2055,0 -2.2476,-0.27264 -2.2476,-14.555 v -12.906 h -4.4261 l -0.10631,13.156 c -0.11478,14.204 -0.05671,13.829 -2.2058,14.267 l -1.2405,0.25325 -0.10343,5.3491 c -0.05689,2.942 -0.02037,5.5655 0.08113,5.8301 0.19381,0.50505 9.5258,0.72693 10.754,0.25569 z m 10.139,-0.74621 c 2.3194,-1.7007 2.3222,-1.7232 2.3228,-18.994 7.42e-4,-17.162 0.01573,-17.033 -2.1849,-18.6 -2.6833,-1.9107 -2.5903,-2.3364 -2.7139,12.433 -0.12345,14.757 -0.02603,14.257 -2.7791,14.257 h -1.2279 v 5.4923 c 0,3.8924 0.13513,5.6311 0.46388,5.9687 0.72397,0.74348 4.8588,0.36697 6.1192,-0.55719 z"
     fill="#626262"
     stroke-width="0.3711"
     id="path2"
     sodipodi:nodetypes="cscsscsccccccccssccssscscccscssccsccscccccscscsccc" />
</svg>
