<?xml version="1.0" encoding="UTF-8"?>
<!-- Created with Inkscape (http://www.inkscape.org/) -->
<svg id="SVGRoot" width="64px" height="64px" version="1.1" viewBox="0 0 64 64" xmlns="http://www.w3.org/2000/svg">
 <path d="m17.474 56.903c0-0.81944 0.17411-1.1133 0.65963-1.1133 1.1884 0 2.3092-1.0845 2.3092-2.2346 0-1.2938-0.98946-1.9432-2.7076-1.777l-1.1889 0.11501-0.11101 2.5609c-0.06105 1.4085-0.02453 2.7862 0.08113 3.0616 0.34907 0.90966 0.95763 0.52036 0.95763-0.61261zm0.3711-3.1544c0-0.56038 0.21175-0.92775 0.53475-0.92775 0.78301 0 1.081 0.69348 0.56506 1.3151-0.66943 0.80661-1.0998 0.65503-1.0998-0.38736zm4.8243 3.1544c0-0.61232 0.13038-1.1133 0.28974-1.1133s0.47884 0.50099 0.70997 1.1133c0.32716 0.86674 0.64716 1.1133 1.4449 1.1133h1.0247l-0.88634-0.94347c-0.74907-0.79734-0.81656-1.0552-0.43579-1.6649 1.2068-1.9323 0.32273-3.7003-1.8503-3.7003h-1.4102v3.1544c0 2.5565 0.10551 3.1544 0.55665 3.1544 0.3711 0 0.55665-0.3711 0.55665-1.1133zm0-3.1271c0-0.71826 0.19036-0.95496 0.76801-0.95496 0.58331 0 0.73949 0.19989 0.64942 0.83118-0.17598 1.2334-1.4174 1.3419-1.4174 0.12378zm8.1642 3.6838c-0.39084 0-0.39458-0.55665-1.3247-0.55665-1.5851 0-1.8065-1.5678-0.25252-1.7885 1.136-0.16134 1.0617-0.80916-0.09277-0.80916-0.68035 0-0.92775-0.19792-0.92775-0.7422 0-0.57727 0.2474-0.7422 1.1133-0.7422 0.7422 0 1.1133-0.18555 1.1133-0.55665 0-0.41233-0.43295-0.55665-1.67-0.55665h-1.67v6.3087h1.8555c1.4019 0 2.2761-0.55665 1.8555-0.55665zm4.0079 0.11133c0-1.3143 0.52467-2.5017-0.85298-3.3145-1.3006-0.76738-1.424-1.6518-0.1853-1.3278 1.2581 0.32899 1.6539-0.35013 0.60479-1.0375-0.90819-0.59507-1.0418-0.59732-1.9044-0.03206-1.3926 0.9125-1.2347 2.2902 0.3711 3.2376 0.71437 0.42149 1.2989 0.90698 1.2989 1.0789 0 0.56097-0.79695 0.82114-1.2199 0.39823-0.56243-0.56244-1.3778-0.52134-1.3778 0.06944 0 0.77172 0.81264 1.3731 1.8555 1.3731 0.53067 0 1.4102-0.09894 1.4102-0.44532zm14.2 0.18958c1.0155-1.0155 0.238-2.7658-1.503-3.3832-1.1968-0.42442-0.79746-1.4893 0.46388-1.237 1.3262 0.26525 1.5732-0.59982 0.35708-1.2507-1.6594-0.88809-3.3094 0.67867-2.5258 2.3984 0.2378 0.52193 0.62414 0.94896 0.85853 0.94896 0.23438 0 0.75031 0.23925 1.1465 0.53167 1.0317 0.76147 0.14636 1.7233-0.95382 1.0362-1.4061-0.8781-2.0269-0.31212-0.89702 0.81776 0.69012 0.69012 2.4231 0.76834 3.0536 0.13784zm-6.1372-2.1656c0-2.0617 0.11486-2.5977 0.55665-2.5977 0.30616 0 0.55665-0.25049 0.55665-0.55665 0-0.42058-0.45357-0.55665-1.8555-0.55665-1.8663 0-2.5607 0.62727-1.1133 1.0058 0.65152 0.17038 0.7422 0.50619 0.7422 2.7485 0 2.0232 0.11576 2.5544 0.55665 2.5544 0.44179 0 0.55665-0.53603 0.55665-2.5977zm-3.4907 1.8931c-0.37405 0-0.37412-0.55665-1.1405-0.55665-1.3737 0-1.427-1.2227-0.06177-1.4174 1.1729-0.16734 1.0667-1.1803-0.12378-1.1803-1.3476 0-1.0736-1.2567 0.30871-1.4163 1.7841-0.20593 1.2453-1.1814-0.6526-1.1814h-1.67v6.3087h1.67c1.237 0 2.0823-0.55665 1.67-0.55665zm-22.558-12.954c0.30624-0.30624 0.44532-2.1606 0.44532-5.9376v-5.4923h-1.2989c-2.8154 0-2.7833 0.16711-2.7833-14.473v-12.989h-1.1074c-0.69912 0-1.5543 0.39913-2.3194 1.0825l-1.2119 1.0825-0.11136 16.26c-0.12138 17.724-0.14596 17.36 1.2871 19.063 1.489 1.7696 5.8681 2.6354 7.0998 1.4037zm14.835-5.5851 0.1022-5.8448h-1.2872c-2.4319 0-2.4426-0.06411-2.4426-14.555v-12.906h-4.3391l-0.24258 4.5115c-0.13342 2.4813-0.24258 8.4873-0.24258 13.347 0 9.6326 0.0067 9.6034-2.2022 9.6034-0.77807 0-1.2551 10.892-0.50968 11.637 0.1413 0.1413 2.688 0.21088 5.6593 0.15462l5.4024-0.10229zm13.969 5.8051c0.50009-0.1919 0.587-1.071 0.587-5.9376v-5.7123h-1.0923c-2.2055 0-2.2476-0.27264-2.2476-14.555v-12.906h-4.4261l-0.10631 13.156c-0.11478 14.204-0.056708 13.829-2.2058 14.267l-1.2405 0.25325-0.10343 5.3491c-0.05689 2.942-0.02037 5.5655 0.08113 5.8301 0.19381 0.50505 9.5258 0.72693 10.754 0.25569zm10.139-0.74621c2.3194-1.7007 2.3222-1.7232 2.3228-18.994 7.42e-4 -17.162 0.01573-17.033-2.1849-18.6-2.6833-1.9107-2.5903-2.3364-2.7139 12.433-0.12345 14.757-0.026029 14.257-2.7791 14.257h-1.2279v5.4923c0 3.8924 0.13513 5.6311 0.46388 5.9687 0.72397 0.74348 4.8588 0.36697 6.1192-0.55719z" fill="#626262" stroke-width=".3711"/>
</svg>
