<?xml version="1.0" encoding="UTF-8"?>
<!-- Created with Inkscape (http://www.inkscape.org/) -->
<svg id="SVGRoot" width="64px" height="64px" version="1.1" viewBox="0 0 64 64" xmlns="http://www.w3.org/2000/svg">
 <path d="m14.095 57.111c0.09195-0.68812 0.3388-0.91737 0.98785-0.91737 1.1947 0 1.795-0.63126 1.795-1.8877 0-1.3982-0.61511-1.8877-2.3723-1.8877h-1.4426l-0.12634 2.7759c-0.06949 1.5267-0.05008 2.8427 0.04314 2.9245 0.41451 0.36344 1.0031-0.16836 1.1153-1.0076zm0.07112-2.805c0-0.68036 0.17016-0.87933 0.67793-0.79269 0.37286 0.06362 0.67794 0.42033 0.67794 0.79269s-0.30507 0.72908-0.67794 0.79269c-0.50777 0.08664-0.67793-0.11233-0.67793-0.79269zm5.1072 3.0296c0.17286-1.2937 0.8973-1.3553 1.4724-0.12521 0.30162 0.64513 0.76867 1.0426 1.2252 1.0426 0.67909 0 0.69427-0.07503 0.19096-0.94383-0.35804-0.61805-0.47944-1.5542-0.35171-2.712 0.21928-1.9877-0.48018-2.667-2.5302-2.4574-1.4117 0.14434-1.9028 6.1132-0.50297 6.1132 0.2056 0 0.42898-0.41282 0.4964-0.91736zm0.31627-3.0296c0-0.53389 0.21952-0.85803 0.58109-0.85803 0.36156 0 0.58109 0.32414 0.58109 0.85803 0 0.53389-0.21952 0.85803-0.58109 0.85803-0.36156 0-0.58109-0.32414-0.58109-0.85803zm7.3549 3.6064c1.124-0.53294 1.706-2.5045 1.1667-3.9522-0.73275-1.9671-2.1896-2.3779-3.6968-1.0426-2.3338 2.0676-0.19623 6.2875 2.5301 4.9948zm-1.8539-1.1009c-0.6342-0.56187-0.58813-2.8456 0.06711-3.3274 1.4333-1.0539 2.7753 1.3385 1.624 2.8952-0.7008 0.94758-1.0179 1.0286-1.6911 0.43223zm6.6742 0.90216c0.69984-0.62002 0.89686-5.6385 0.22137-5.6385-0.44078 0-0.47977 0.24036-0.39594 2.4408 0.06864 1.8017-0.76025 2.8642-1.9692 2.5243-0.5588-0.15713-0.73396-0.03704-0.73396 0.50317 0 0.88431 1.9421 0.99918 2.8778 0.17022zm5.8385-0.14709c0-0.32995-0.4521-0.55344-1.259-0.62237-1.6515-0.14108-1.7359-1.0937-0.09685-1.0937 0.77478 0 1.1622-0.17161 1.1622-0.51482 0-0.34321-0.38739-0.51482-1.1622-0.51482-0.90391 0-1.1622-0.15254-1.1622-0.68642 0-0.53389 0.25826-0.68642 1.1622-0.68642 0.91474 0 1.1622-0.15035 1.1622-0.70616 0-0.61852-0.20432-0.69306-1.6464-0.60062l-1.6464 0.10554-0.11225 3.0225-0.11225 3.0225 1.8555-0.10517c1.3383-0.07585 1.8555-0.24866 1.8555-0.61998zm5.1523 0.27457c0.79618-0.70538 0.5131-1.0553-0.68232-0.84353-1.3596 0.24091-2.3393-0.45362-2.3393-1.6584 0-1.4579 0.40372-1.8912 1.7618-1.8912 1.6504 0 2.0575-0.56681 0.77804-1.0833-2.1106-0.85197-3.9934 0.99603-3.5515 3.4858 0.34193 1.9263 2.7592 3.1194 4.0332 1.9906zm3.9514-1.9906c0-2.1737 0.07379-2.4025 0.77478-2.4025 0.51652 0 0.77478-0.22881 0.77478-0.68643 0-0.60322-0.25826-0.68642-2.1307-0.68642-1.8724 0-2.1307 0.0832-2.1307 0.68642 0 0.45762 0.25826 0.68643 0.77478 0.68643 0.70099 0 0.77478 0.22881 0.77478 2.4025 0 1.9067 0.1199 2.4025 0.58109 2.4025 0.46118 0 0.58109-0.49575 0.58109-2.4025zm6.0382 1.5471c0.78444-1.0607 0.51339-1.744-0.99297-2.5035-1.4322-0.72207-1.5976-1.6153-0.24326-1.3142 1.043 0.23192 1.6189-0.48381 0.90112-1.1198-0.6131-0.54318-1.8461-0.47791-2.6148 0.13841-0.91076 0.73023-0.52863 2.0796 0.83198 2.938 1.3927 0.8786 1.4592 1.4943 0.12944 1.1987-1.4072-0.31291-1.9115 0.08036-1.1096 0.8654 0.93621 0.91652 2.3379 0.82465 3.098-0.20303zm-0.86205-11.481c1.7474-0.35921 3.6063-1.7886 4.3626-3.3546 0.92834-1.9222 0.75066-30.366-0.20106-32.187-2.0666-3.9546-2.0203-3.9469-23.712-3.9469-21.079 0-20.569-0.0631-22.718 2.8128l-1.0658 1.4264-0.096766 15.642-0.096763 15.642 0.87314 1.3728c1.8682 2.9374 1.7202 2.9185 22.743 2.9091 10.129-0.0045 19.089-0.14657 19.912-0.31571zm-37.599-4.9662-1.0869-0.82831v-27.576l2.1739-1.6566h34.391l1.011 0.77223c1.2156 0.92849 1.207 0.78904 1.066 17.176l-0.09685 11.256-1.9017 1.6849h-34.47zm11.891-5.0063c0.87779-1.4531-0.08733-2.0593-3.2788-2.0593-2.871 0-4.0816 0.44501-4.0816 1.5003 0 1.4243 6.5378 1.9208 7.3604 0.55894zm19.176-0.68642v-1.2012l-6.6916-0.09394c-6.649-0.09335-6.6937-0.08898-7.0241 0.68642-0.79034 1.8547-0.22874 2.0064 7.0517 1.9038l6.664-0.09384zm-18.856-6.4541c0.22336-1.3959-0.55441-1.783-3.5831-1.783-3.235 0-4.9056 1.229-3.4381 2.5292 0.79191 0.7016 6.8932 0.05309 7.0211-0.74626zm19.017 0.32936c1.0409-1.7232-0.23685-2.1123-6.9353-2.1123-7.0286 0-8.0401 0.30234-6.9651 2.0818 0.60224 0.99696 13.3 1.0248 13.9 0.03051zm-23.573-8.3022c0.85893-0.40726 1.0415-2.3375 0.28445-3.0082-0.73661-0.65261-2.5535-0.50039-3.008 0.25201-1.2035 1.9924 0.56336 3.7805 2.7236 2.7562zm8.1761-0.21273c0.91857-0.73649 0.90337-1.915-0.0344-2.6669-1.7628-1.4134-4.2734 0.61852-2.9595 2.3952 0.71897 0.97215 1.9778 1.0864 2.9939 0.27173zm8.2858-0.27322c1.0641-1.4388 0.16188-2.9185-1.7858-2.9289-1.3255-7e-3 -1.9176 0.5901-1.9176 1.934 0 1.8662 2.552 2.5517 3.7034 0.99485zm7.7895-0.05635c0.92828-1.2552 0.06266-2.7062-1.6144-2.7062-1.6771 0-2.5427 1.451-1.6144 2.7062 0.41736 0.56433 1.0168 0.89758 1.6144 0.89758s1.1971-0.33324 1.6144-0.89758z" fill="#626262" stroke-width=".36463"/>
</svg>
