<?xml version="1.0" encoding="UTF-8" standalone="no"?>
<!-- Created with Inkscape (http://www.inkscape.org/) -->

<svg
   id="SVGRoot"
   width="64px"
   height="64px"
   version="1.1"
   viewBox="0 0 64 64"
   sodipodi:docname="projectsButton.svg"
   inkscape:version="1.2.2 (b0a8486541, 2022-12-01)"
   xmlns:inkscape="http://www.inkscape.org/namespaces/inkscape"
   xmlns:sodipodi="http://sodipodi.sourceforge.net/DTD/sodipodi-0.dtd"
   xmlns="http://www.w3.org/2000/svg"
   xmlns:svg="http://www.w3.org/2000/svg">
  <defs
     id="defs735" />
  <sodipodi:namedview
     id="namedview733"
     pagecolor="#505050"
     bordercolor="#eeeeee"
     borderopacity="1"
     inkscape:showpageshadow="0"
     inkscape:pageopacity="0"
     inkscape:pagecheckerboard="0"
     inkscape:deskcolor="#505050"
     showgrid="false"
     inkscape:zoom="13.21875"
     inkscape:cx="27.990544"
     inkscape:cy="32"
     inkscape:window-width="1920"
     inkscape:window-height="1016"
     inkscape:window-x="0"
     inkscape:window-y="32"
     inkscape:window-maximized="1"
     inkscape:current-layer="SVGRoot" />
  <path
     d="m 51.88314,45.91664 c 1.7474,-0.35921 3.6063,-1.7886 4.3626,-3.3546 0.92834,-1.9222 0.75066,-30.366 -0.20106,-32.187 -2.0666,-3.9546 -2.0203,-3.9469 -23.712,-3.9469 -21.079,0 -20.569,-0.0631 -22.718,2.8128 l -1.0658,1.4264 -0.096766,15.642 -0.096763,15.642 0.87314,1.3728 c 1.8682,2.9374 1.7202,2.9185 22.743,2.9091 10.129,-0.0045 19.089,-0.14657 19.912,-0.31571 z m -37.599,-4.9662 -1.0869,-0.82831 v -27.576 l 2.1739,-1.6566 h 34.391 l 1.011,0.77223 c 1.2156,0.92849 1.207,0.78904 1.066,17.176 l -0.09685,11.256 -1.9017,1.6849 h -34.47 z m 11.891,-5.0063 c 0.87779,-1.4531 -0.08733,-2.0593 -3.2788,-2.0593 -2.871,0 -4.0816,0.44501 -4.0816,1.5003 0,1.4243 6.5378,1.9208 7.3604,0.55894 z m 19.176,-0.68642 v -1.2012 l -6.6916,-0.09394 c -6.649,-0.09335 -6.6937,-0.08898 -7.0241,0.68642 -0.79034,1.8547 -0.22874,2.0064 7.0517,1.9038 l 6.664,-0.09384 z m -18.856,-6.4541 c 0.22336,-1.3959 -0.55441,-1.783 -3.5831,-1.783 -3.235,0 -4.9056,1.229 -3.4381,2.5292 0.79191,0.7016 6.8932,0.05309 7.0211,-0.74626 z m 19.017,0.32936 c 1.0409,-1.7232 -0.23685,-2.1123 -6.9353,-2.1123 -7.0286,0 -8.0401,0.30234 -6.9651,2.0818 0.60224,0.99696 13.3,1.0248 13.9,0.03051 z m -23.573,-8.3022 c 0.85893,-0.40726 1.0415,-2.3375 0.28445,-3.0082 -0.73661,-0.65261 -2.5535,-0.50039 -3.008,0.25201 -1.2035,1.9924 0.56336,3.7805 2.7236,2.7562 z m 8.1761,-0.21273 c 0.91857,-0.73649 0.90337,-1.915 -0.0344,-2.6669 -1.7628,-1.4134 -4.2734,0.61852 -2.9595,2.3952 0.71897,0.97215 1.9778,1.0864 2.9939,0.27173 z m 8.2858,-0.27322 c 1.0641,-1.4388 0.16188,-2.9185 -1.7858,-2.9289 -1.3255,-0.007 -1.9176,0.5901 -1.9176,1.934 0,1.8662 2.552,2.5517 3.7034,0.99485 z m 7.7895,-0.05635 c 0.92828,-1.2552 0.06266,-2.7062 -1.6144,-2.7062 -1.6771,0 -2.5427,1.451 -1.6144,2.7062 0.41736,0.56433 1.0168,0.89758 1.6144,0.89758 0.5976,0 1.1971,-0.33324 1.6144,-0.89758 z"
     fill="#626262"
     stroke-width="0.36463"
     id="path730"
     sodipodi:nodetypes="cscsccccccccccccccscccccssccccscccccsccccscccccccccscccccscccsssc" />
</svg>
