<?xml version="1.0" encoding="UTF-8"?>
<svg width="24" height="24" style="-ms-transform:rotate(360deg);-webkit-transform:rotate(360deg);transform:rotate(360deg)" version="1.1" viewBox="0 0 24 24" xmlns="http://www.w3.org/2000/svg">
 <path d="m4 4c-1.11 0-2 0.89-2 2v12c0 1.11 0.89 2 2 2h16c2 0 2-2 2-2v-4-8c0-1.11-0.89-2-2-2h-16zm11.02 1h0.45117v4.0234h-0.45117v-0.30273c-0.12956 0.12069-0.26354 0.21596-0.4043 0.2832-0.14076 0.067239-0.29423 0.099609-0.45898 0.099609-0.31991 0-0.57493-0.13293-0.76367-0.39844-0.18715-0.26551-0.2793-0.63284-0.2793-1.1035 0-0.24482 0.031722-0.46292 0.095703-0.6543 0.065581-0.19137 0.1533-0.3538 0.26367-0.48828 0.10877-0.13103 0.23495-0.23182 0.37891-0.30078 0.14556-0.068963 0.29602-0.10352 0.45117-0.10352 0.14076 0 0.26623 0.01607 0.375 0.048828 0.10877 0.031034 0.22183 0.081198 0.3418 0.14844v-1.252zm-11.02 0.17383h1c0.21594 0 0.39706 0.015842 0.54102 0.046875 0.14396 0.02931 0.27351 0.082572 0.38867 0.16016 0.12956 0.087928 0.2288 0.19755 0.30078 0.33203 0.073579 0.13275 0.11133 0.30265 0.11133 0.50781 0 0.27758-0.06575 0.50934-0.19531 0.69727-0.12956 0.1862-0.30607 0.32705-0.5332 0.42188l1.3418 1.6836h-0.61523l-1.1953-1.5312h-0.66992v1.5312h-0.47461v-3.8496zm0.47461 0.43945v1.4531h0.48047c0.15036 0 0.28061-0.01343 0.39258-0.041016 0.11197-0.029309 0.20873-0.082572 0.28711-0.16016 0.071979-0.072412 0.12461-0.15495 0.1582-0.24805 0.03519-0.094825 0.052734-0.21455 0.052734-0.35938 0-0.11034-0.019851-0.20849-0.056641-0.29297-0.03519-0.086204-0.092605-0.15818-0.17578-0.2168-0.06878-0.049998-0.15172-0.084551-0.24609-0.10352-0.094373-0.020689-0.20602-0.03125-0.33398-0.03125h-0.55859zm3.8984 0.44141c0.3615 0 0.64079 0.11422 0.83594 0.3418 0.19674 0.22758 0.29492 0.55175 0.29492 0.9707v0.26367h-1.9746c0 0.17758 0.024633 0.33209 0.074219 0.46484 0.049586 0.13103 0.1187 0.23779 0.20508 0.32227 0.083176 0.082756 0.18135 0.14612 0.29492 0.1875 0.11517 0.041378 0.24135 0.0625 0.37891 0.0625 0.18235 0 0.36488-0.039604 0.54883-0.11719 0.18555-0.079308 0.31811-0.15656 0.39648-0.23242h0.023438v0.5293c-0.15196 0.068964-0.30649 0.12728-0.46484 0.17383-0.15835 0.04655-0.32565 0.070312-0.5 0.070312-0.44467 0-0.79149-0.13006-1.041-0.38867-0.24953-0.26034-0.375-0.62985-0.375-1.1074 0-0.4724 0.11909-0.84742 0.35742-1.125 0.23993-0.27758 0.55502-0.41602 0.94531-0.41602zm3.166 0c0.28952 0 0.51015 0.095278 0.66211 0.2832 0.15196 0.18793 0.22852 0.45711 0.22852 0.81055v1.875h-0.45117v-1.6445c0-0.13275-0.007089-0.25558-0.021485-0.37109-0.014396-0.11724-0.041689-0.20988-0.080078-0.27539-0.039988-0.072412-0.096697-0.12567-0.17188-0.16016-0.075178-0.036206-0.173-0.054688-0.29297-0.054688-0.12316 0-0.25236 0.034094-0.38672 0.099609-0.13436 0.065515-0.26356 0.14828-0.38672 0.25v2.1562h-0.45117v-2.8887h0.45117v0.32031c0.14076-0.12586 0.28714-0.22228 0.4375-0.29297 0.15036-0.070688 0.30454-0.10742 0.46289-0.10742zm5.9336 0c0.3615 0 0.63884 0.11422 0.83398 0.3418 0.19674 0.22758 0.29492 0.55175 0.29492 0.9707v0.26367h-1.9746c0 0.17758 0.024633 0.33209 0.074219 0.46484 0.049586 0.13103 0.1187 0.23779 0.20508 0.32227 0.083176 0.082756 0.18136 0.14612 0.29492 0.1875 0.11517 0.041378 0.24135 0.0625 0.37891 0.0625 0.18235 0 0.36488-0.039604 0.54883-0.11719 0.18555-0.079308 0.31811-0.15656 0.39648-0.23242h0.023437v0.5293c-0.15196 0.068964-0.30649 0.12728-0.46484 0.17383-0.15835 0.04655-0.32565 0.070312-0.5 0.070312-0.44467 0-0.79149-0.13006-1.041-0.38867-0.24953-0.26034-0.37305-0.62985-0.37305-1.1074 0-0.4724 0.11909-0.84742 0.35742-1.125 0.23993-0.27758 0.55502-0.41602 0.94531-0.41602zm1.8125 0.080078h0.45117v0.42773c0.17915-0.15517 0.3367-0.26433 0.47266-0.32812 0.13756-0.065515 0.27756-0.099609 0.41992-0.099609 0.078378 0 0.13668 0.0026403 0.17188 0.0078125 0.03519 0.0034482 0.087824 0.011369 0.1582 0.023438v0.5h-0.02539c-0.067181-0.017241-0.13133-0.030213-0.19531-0.037109-0.062382-0.0086204-0.13823-0.011719-0.22461-0.011719-0.13916 0-0.27278 0.03237-0.40234 0.099609-0.12956 0.065515-0.25503 0.15069-0.375 0.25586v2.0508h-0.45117v-2.8887zm-10.936 0.32031c-0.24153 0-0.43417 0.077025-0.57812 0.23047-0.14236 0.15344-0.22299 0.34469-0.24219 0.57227h1.5352c-0.0015995-0.25516-0.061322-0.45215-0.17969-0.5918-0.11677-0.13965-0.29523-0.21094-0.53516-0.21094zm9.0977 0c-0.24153 0-0.43417 0.077025-0.57812 0.23047-0.14236 0.15344-0.22299 0.34469-0.24219 0.57227h1.5371c-0.001599-0.25516-0.063274-0.45215-0.18164-0.5918-0.11677-0.13965-0.29523-0.21094-0.53516-0.21094zm-3.0684 0.044922c-0.25273 0-0.44908 0.095507-0.58984 0.28516-0.14076 0.18965-0.21094 0.45838-0.21094 0.80664 0 0.34309 0.053341 0.6039 0.16211 0.7832 0.10877 0.17758 0.28351 0.26562 0.52344 0.26562 0.12796 0 0.25751-0.029501 0.38867-0.089844 0.13116-0.062067 0.25362-0.14173 0.36719-0.23828v-1.6582c-0.12156-0.058619-0.2302-0.098681-0.32617-0.12109-0.095972-0.022413-0.20088-0.033203-0.31445-0.033203zm-2.3789 4.5 4 4-4 4v-2.5h-3v-3h3v-2.5z" fill="#626262"/>
 <rect width="24" height="24" display="none" fill="rgba(0, 0, 0, 0)"/>
</svg>
