<?xml version="1.0" encoding="UTF-8"?>
<!-- Created with Inkscape (http://www.inkscape.org/) -->
<svg id="SVGRoot" width="64px" height="64px" version="1.1" viewBox="0 0 64 64" xmlns="http://www.w3.org/2000/svg">
 <g fill="#626262">
  <path d="m34.533 45.557c4.5176-2.2611 2.8843-9.1884-2.1663-9.1884-4.9616 0-6.5297 6.9938-2.0685 9.2257-1.096-0.88974 3.2602 0.98392 4.2348-0.03727zm-1.3163-12.475c1.2803-0.39544 2.2368-1.3845 2.7531-2.8467 0.14868-0.42112 0.2574-1.8999 0.66211-9.0058 0.27768-4.8756 0.31653-5.3277 0.48626-5.6593 0.56059-1.0952 1.6896-0.61778 1.693 0.71586 8.4e-4 0.32466 0.04217 1.0909 0.09184 1.7027 0.04967 0.61185 0.18079 2.636 0.29138 4.4982 0.11059 1.8622 0.23705 3.9756 0.28102 4.6965 0.30064 4.9294 5.8616 5.0576 6.0638 0.1398 0.10459-2.5436 2e-3 -2.4661 3.2617-2.4669 3.103-8.39e-4 3.4338-0.09518 3.6094-1.0311 0.23398-1.2472-0.35723-1.4834-3.7125-1.4834-4.6276 0-5.484 0.62773-5.6224 4.121-0.06175 1.559-0.13001 1.7799-0.54998 1.7799-0.40029 0-0.45941-0.29442-0.63133-3.1439-0.62551-10.368-0.58982-10.002-1.0584-10.834-1.4011-2.488-4.855-2.3268-6.0495 0.28234-0.35049 0.76558-0.51795 2.688-0.8602 9.8749-0.26562 5.5777-0.42045 6.1259-1.7817 6.3085-1.7139 0.22988-1.89-0.31508-2.1885-6.7689-0.60811-13.151-0.58822-12.867-0.9599-13.679-1.2201-2.6649-4.8913-2.6495-6.1161 0.02582-0.28224 0.61651-0.36391 1.3791-0.51173 4.7789-0.21664 4.9824-0.48537 11.31-0.51002 12.01-0.07369 2.0904-0.99173 1.4968-1.0694-0.69148-0.11623-3.2763-0.97406-3.9959-4.8215-4.0447-3.0401-0.03857-3.4682 0.12315-3.4693 1.3104-8.39e-4 0.99188 0.51063 1.1618 3.5484 1.1788 2.135 0.01196 2.1438 0.02073 2.3078 2.281 0.21355 2.944 1.9864 4.4114 4.1652 3.4476 1.4871-0.65785 1.7204-1.2957 1.8807-5.1405 0.5845-14.023 0.58346-14.007 0.93292-14.357 1.0733-1.0733 1.5128-0.11972 1.668 3.619 0.1421 3.4231 0.18416 4.2862 0.34878 7.1584 0.07471 1.3035 0.18222 3.393 0.23891 4.6433 0.15709 3.4645 0.29904 4.1223 1.1085 5.1371 1.1287 1.4151 2.841 1.9619 4.5197 1.4433zm-0.061708-26.068c0.51721-0.51721 0.10394-1.6005-0.61057-1.6005-0.58701 0-1.1081 0.74064-0.90223 1.2822 0.21903 0.57609 1.0749 0.75617 1.5128 0.3183z" stroke-width=".096736"/>
  <path d="m18.402 58.209c0.7029-1.3134 0.45246-1.9465-1.1767-2.975-1.751-1.1054-1.7231-1.9406 0.05178-1.5507 1.2235 0.26872 1.5001-0.20031 0.57228-0.97032-2.0829-1.7286-4.0156 1.0293-2.0322 2.8999 0.78241 0.73791 1.4226 1.5299 1.4226 1.76 0 0.52899-1.0489 0.54912-1.372 0.0263-0.35144-0.56864-1.372-0.48116-1.372 0.1176 0 1.5127 3.1669 2.0739 3.9063 0.69219zm2.5619-0.02577c0.15644-0.4929 0.59313-0.78402 1.176-0.78402 0.58291 0 1.0196 0.29112 1.176 0.78402 0.13686 0.43121 0.57647 0.78402 0.97691 0.78402 0.66698 0 0.62335-0.26871-0.52003-3.2026-1.5793-4.0524-1.8579-4.111-2.9779-0.62576-0.50341 1.5666-0.99893 3.0689-1.1012 3.3384-0.10222 0.26951 0.08573 0.49002 0.41768 0.49002s0.71552-0.35281 0.85238-0.78402zm0.58802-2.1329c0-0.82934 0.66357-1.0985 0.93896-0.38084 0.33527 0.87371 0.30855 0.94572-0.35094 0.94572-0.32341 0-0.58802-0.2542-0.58802-0.56488zm5.5023 1.2509 0.01411-1.6661 1.9319 2.3521 1.9319-2.3521 0.01411 1.6661c0.0078 0.91633 0.1905 1.6661 0.40611 1.6661 0.2306 0 0.39201-1.372 0.39201-3.3321 0-3.9007-0.47725-4.2825-1.9601-1.568-0.53001 0.97023-1.0645 1.7641-1.1877 1.7641-0.12324 0-0.60975-0.79382-1.0811-1.7641-1.262-2.5975-1.6513-2.2278-1.6513 1.568 0 2.7005 0.11145 3.3321 0.58802 3.3321 0.42823 0 0.59185-0.45272 0.60212-1.6661zm7.4341 0.49002c0-0.94562 0.16677-1.176 0.85116-1.176 1.1436 0 2.2849-1.0934 2.2849-2.1888 0-1.3333-1.0313-2.1233-2.7721-2.1233h-1.54v3.3321c0 2.7005 0.11145 3.3321 0.58802 3.3321 0.39201 0 0.58802-0.39201 0.58802-1.176zm0-3.3321c0-0.70023 0.21187-0.98003 0.74208-0.98003 0.89631 0 1.326 0.9112 0.71693 1.5203-0.75001 0.75001-1.459 0.48748-1.459-0.54025zm8.1363 4.0181c-0.08872-0.26951-0.76494-0.57822-1.5027-0.68602l-1.3414-0.19601-0.14038-2.7441c-0.14853-2.9033-0.2071-3.1343-0.71557-2.822-0.17605 0.10813-0.26303 1.7134-0.19329 3.5674l0.12681 3.3708h1.9639c1.3958 0 1.9173-0.14174 1.8026-0.49002zm4.0161-0.098c0-0.39201-0.39201-0.58802-1.176-0.58802-0.91469 0-1.176-0.17423-1.176-0.78402 0-0.57495 0.26134-0.78402 0.98003-0.78402 0.6098 0 0.98003-0.22214 0.98003-0.58802s-0.37023-0.58802-0.98003-0.58802c-0.71869 0-0.98003-0.20907-0.98003-0.78402 0-0.6098 0.26134-0.78402 1.176-0.78402 1.4053 0 1.6868-1.1571 0.29401-1.2087-0.48512-0.01795-1.2789-0.07669-1.7641-0.13049-0.85551-0.09489-0.88203 0.0063-0.88203 3.3648v3.4626h1.7641c1.3067 0 1.7641-0.15245 1.7641-0.58802zm5.0178 0.1176c0.92445-0.92445 0.53697-2.2608-0.90163-3.1096-1.6797-0.99105-1.8401-1.9868-0.29401-1.825 1.28 0.13398 1.5018-0.81774 0.29401-1.2613-2.6311-0.96626-3.5299 1.9574-1.158 3.7666 0.93021 0.70951 1.2599 1.1905 0.99664 1.4538-0.2633 0.2633-0.59187 0.22883-0.99312-0.10418-0.92637-0.76882-1.9244-0.22559-1.3968 0.76028 0.48133 0.89938 2.6704 1.1019 3.4528 0.31943z" stroke-width=".39201"/>
 </g>
</svg>
