<?xml version="1.0" encoding="UTF-8" standalone="no"?>
<!-- Created with Inkscape (http://www.inkscape.org/) -->

<svg
   id="SVGRoot"
   width="64px"
   height="64px"
   version="1.1"
   viewBox="0 0 64 64"
   sodipodi:docname="samplesButton.svg"
   inkscape:version="1.2.2 (b0a8486541, 2022-12-01)"
   xmlns:inkscape="http://www.inkscape.org/namespaces/inkscape"
   xmlns:sodipodi="http://sodipodi.sourceforge.net/DTD/sodipodi-0.dtd"
   xmlns="http://www.w3.org/2000/svg"
   xmlns:svg="http://www.w3.org/2000/svg">
  <defs
     id="defs606" />
  <sodipodi:namedview
     id="namedview604"
     pagecolor="#505050"
     bordercolor="#eeeeee"
     borderopacity="1"
     inkscape:showpageshadow="0"
     inkscape:pageopacity="0"
     inkscape:pagecheckerboard="0"
     inkscape:deskcolor="#505050"
     showgrid="false"
     inkscape:zoom="13.21875"
     inkscape:cx="27.990544"
     inkscape:cy="32.832151"
     inkscape:window-width="1920"
     inkscape:window-height="1016"
     inkscape:window-x="0"
     inkscape:window-y="32"
     inkscape:window-maximized="1"
     inkscape:current-layer="g601" />
  <g
     fill="#626262"
     id="g601">
    <path
       d="m34.533 45.557c4.5176-2.2611 2.8843-9.1884-2.1663-9.1884-4.9616 0-6.5297 6.9938-2.0685 9.2257-1.096-0.88974 3.2602 0.98392 4.2348-0.03727zm-1.3163-12.475c1.2803-0.39544 2.2368-1.3845 2.7531-2.8467 0.14868-0.42112 0.2574-1.8999 0.66211-9.0058 0.27768-4.8756 0.31653-5.3277 0.48626-5.6593 0.56059-1.0952 1.6896-0.61778 1.693 0.71586 8.4e-4 0.32466 0.04217 1.0909 0.09184 1.7027 0.04967 0.61185 0.18079 2.636 0.29138 4.4982 0.11059 1.8622 0.23705 3.9756 0.28102 4.6965 0.30064 4.9294 5.8616 5.0576 6.0638 0.1398 0.10459-2.5436 2e-3 -2.4661 3.2617-2.4669 3.103-8.39e-4 3.4338-0.09518 3.6094-1.0311 0.23398-1.2472-0.35723-1.4834-3.7125-1.4834-4.6276 0-5.484 0.62773-5.6224 4.121-0.06175 1.559-0.13001 1.7799-0.54998 1.7799-0.40029 0-0.45941-0.29442-0.63133-3.1439-0.62551-10.368-0.58982-10.002-1.0584-10.834-1.4011-2.488-4.855-2.3268-6.0495 0.28234-0.35049 0.76558-0.51795 2.688-0.8602 9.8749-0.26562 5.5777-0.42045 6.1259-1.7817 6.3085-1.7139 0.22988-1.89-0.31508-2.1885-6.7689-0.60811-13.151-0.58822-12.867-0.9599-13.679-1.2201-2.6649-4.8913-2.6495-6.1161 0.02582-0.28224 0.61651-0.36391 1.3791-0.51173 4.7789-0.21664 4.9824-0.48537 11.31-0.51002 12.01-0.07369 2.0904-0.99173 1.4968-1.0694-0.69148-0.11623-3.2763-0.97406-3.9959-4.8215-4.0447-3.0401-0.03857-3.4682 0.12315-3.4693 1.3104-8.39e-4 0.99188 0.51063 1.1618 3.5484 1.1788 2.135 0.01196 2.1438 0.02073 2.3078 2.281 0.21355 2.944 1.9864 4.4114 4.1652 3.4476 1.4871-0.65785 1.7204-1.2957 1.8807-5.1405 0.5845-14.023 0.58346-14.007 0.93292-14.357 1.0733-1.0733 1.5128-0.11972 1.668 3.619 0.1421 3.4231 0.18416 4.2862 0.34878 7.1584 0.07471 1.3035 0.18222 3.393 0.23891 4.6433 0.15709 3.4645 0.29904 4.1223 1.1085 5.1371 1.1287 1.4151 2.841 1.9619 4.5197 1.4433zm-0.061708-26.068c0.51721-0.51721 0.10394-1.6005-0.61057-1.6005-0.58701 0-1.1081 0.74064-0.90223 1.2822 0.21903 0.57609 1.0749 0.75617 1.5128 0.3183z"
       stroke-width=".096736"
       id="path597" />
  </g>
</svg>
