<?xml version="1.0" encoding="UTF-8"?>
<!-- Created with Inkscape (http://www.inkscape.org/) -->
<svg id="SVGRoot" width="64px" height="64px" version="1.1" viewBox="0 0 64 64" xmlns="http://www.w3.org/2000/svg">
 <path d="m29.976 55.064c0.08802-2.1318 0.19149-2.4658 0.81424-2.6287 1.4631-0.38262 0.44118-1.0951-1.7203-1.1994-1.9528-0.09421-2.1332-0.04302-2.1332 0.60498 0 0.55608 0.22241 0.70789 1.0371 0.70789h1.0371v2.6215c0 3.5299 0.81866 3.4397 0.96508-0.10633zm3.4555-0.72826c0.08355-2.6646 0.01469-3.1697-0.43212-3.1697-0.44125 0-0.53152 0.56263-0.53152 3.3129 0 4.5676 0.81974 4.4458 0.96364-0.14319zm2.5088 1.5836 0.01549-1.8149 1.4724 1.6421c1.9279 2.15 1.9536 2.1329 1.9536-1.2964 0-3.3879-0.90196-4.45-1.1046-1.3007l-0.10536 1.6377-1.3269-1.8121c-0.72981-0.99667-1.4687-1.7245-1.6421-1.6173-0.35937 0.2221-0.43615 5.7946-0.08467 6.1461 0.56624 0.56623 0.80773 0.1008 0.82212-1.5844zm12.718 1.2629c1.1252-0.78813 0.88288-2.1844-0.53336-3.0732-1.2543-0.78718-1.2957-1.3838-0.09684-1.395 0.98251-0.0094 1.2446-0.59655 0.53054-1.1892-0.7883-0.65423-2.2129-0.16041-2.4679 0.85545-0.29712 1.1838 0.01566 1.8213 1.2338 2.5145 0.5725 0.32579 1.0419 0.78679 1.0431 1.0245 0.0028 0.53047-1.2513 0.57538-1.5721 0.0563-0.34312-0.55518-0.90984 0.15195-0.65468 0.81688 0.18228 0.47499 0.53087 0.67816 1.547 0.90162 0.1003 0.02207 0.53698-0.20829 0.97041-0.51187zm-31.816-0.20857c0.81523-0.81523 0.47353-1.9937-0.79511-2.7422-1.3168-0.77695-1.6893-1.8887-0.53126-1.5858 0.37328 0.09762 0.85002-0.02899 1.0594-0.28126 0.56232-0.67756-0.73815-1.2986-1.8412-0.8792-1.6782 0.63805-1.4437 2.332 0.45901 3.316 0.56477 0.29205 1.0268 0.67339 1.0268 0.84742 0 0.54352-0.73335 0.79924-1.1364 0.39624-0.52393-0.52393-1.2835-0.48564-1.2835 0.06472 0 0.7189 0.75701 1.2791 1.7285 1.2791 0.49435 0 1.0855-0.18668 1.3137-0.41484zm4.9089-0.08183c0-0.30763-0.42759-0.53788-1.1235-0.60497-1.3048-0.12581-1.5681-1.0823-0.3457-1.2559 1.0074-0.14308 1.0101-1.0183 0.0036-1.1619-1.4078-0.20085-1.191-1.3204 0.25575-1.3204 1.0145 0 1.2379-0.11811 1.1441-0.60497-0.09031-0.46895-0.46521-0.60497-1.6674-0.60497h-1.5509l-0.09988 3.0249-0.09989 3.0249h1.742c1.2838 0 1.7419-0.13062 1.7419-0.49664zm3.1113-1.8992c0-2.2214 0.05664-2.4039 0.77782-2.5063 1.7254-0.24504 0.83547-1.1446-1.2388-1.2521-2.0847-0.10807-2.9531 0.97412-1.0047 1.2521 0.71681 0.10226 0.77429 0.28832 0.77429 2.5063 0 1.3668 0.14849 2.3958 0.3457 2.3958 0.19721 0 0.3457-1.0291 0.3457-2.3958zm19.569 1.7909c0.57726-0.76045 0.60818-1.8954 0.06639-2.4372-0.59642-0.59642-2.005-0.52356-2.005 0.1037 0 0.2852 0.23335 0.51854 0.51855 0.51854 0.29389 0 0.51855 0.30997 0.51855 0.71544 0 1.088-1.4543 0.744-1.8698-0.44224-0.56934-1.6257 0.23123-2.818 1.7063-2.5413 1.3783 0.25856 1.7253-0.53804 0.51632-1.1851-2.4765-1.3254-4.6651 3.2399-2.5616 5.3434 0.71886 0.71887 2.541 0.67474 3.1103-0.07529zm-29.94-16.371v-3.42h-1.8547c-5.1516 0-5.3223 6.4615-0.18449 6.9814 2.0129 0.2037 2.0392 0.1578 2.0392-3.5614zm6.6395 3.2768c3.8532-1.0814 2.9198-6.4196-1.1343-6.487l-2.2211-0.03694-0.10038 3.059c-0.13488 4.1104 0.1474 4.3934 3.4558 3.4649zm11.613 0.148c0.54637-0.54638 0.60089-35.236 0.05698-36.252-0.50587-0.94522-2.2159-0.88659-2.9067 0.099647-0.84262 1.203-0.81066 35.002 0.03398 35.935 0.64972 0.71793 2.1958 0.83727 2.8157 0.21736zm12.099 0c0.2598-0.2598 0.41484-1.5518 0.41484-3.457v-3.0421h-2.3663c-2.8185 0-3.6677 0.63297-3.6677 2.734 0 2.8158 3.9331 5.4512 5.6192 3.7652zm7.7522-0.68178c3.1241-2.2108 1.4412-6.3076-2.4976-6.0801l-1.5556 0.08987-0.10074 3.0839c-0.14102 4.3168 1.0165 5.1266 4.154 2.9063zm0.78649-10.355c1.9427-1.8748 0.20788-5.4748-2.8905-5.9982-2.0184-0.341-2.1221-0.17256-2.1221 3.4474v3.2418l1.1235 0.14227c1.6956 0.21472 3.1192-0.09034 3.8891-0.83324zm-38.891-2.7662v-3.501l-1.7606 0.16917c-5.151 0.49495-5.607 6.8327-0.49151 6.8327h2.2521zm8.2833 2.7444c2.0956-2.2494-0.27665-6.1574-3.7378-6.1574-1.2395 0-1.423 0.54346-1.4295 4.2348l-0.0047 2.6792h2.2336c1.8525 0 2.3538-0.12906 2.9384-0.75657zm22.311-2.7004c0-3.7092-0.23604-3.9618-2.9439-3.1505-4.5486 1.3628-3.9913 6.7427 0.67698 6.5353l2.267-0.1007zm-30.594-12.895c0-5.2198 0.15337-5.7732 1.6001-5.7732 1.6315 0 1.8569 0.71646 1.8569 5.9016v4.8151h1.4787c5.4126 0 5.782-12.561 0.45077-15.327-5.9769-3.1017-10.918 0.54934-10.918 8.0677 0 5.6832 0.89243 7.2101 4.2348 7.2458l1.2964 0.01384v-4.9435zm34.701 4.5671c1.9516-0.54188 4.4795-3.1901 4.9935-5.231 2.4134-9.5844-10.352-14.753-14.665-5.9372-3.0751 6.2854 2.8043 13.075 9.6712 11.168zm-3.4652-4.8062c-2.8848-1.1642-2.0868-5.5341 1.0106-5.5341 3.0254 0 3.8698 4.2288 1.0774 5.3955-0.63363 0.26475-1.1959 0.4715-1.2496 0.45945-0.05364-0.01206-0.4309-0.15645-0.83836-0.32087z" fill="#626262" stroke-width=".3457"/>
</svg>
