<?xml version="1.0" encoding="UTF-8" standalone="no"?>
<!-- Created with Inkscape (http://www.inkscape.org/) -->

<svg
   id="SVGRoot"
   width="64px"
   height="64px"
   version="1.1"
   viewBox="0 0 64 64"
   sodipodi:docname="settingsButton.svg"
   inkscape:version="1.2.2 (b0a8486541, 2022-12-01)"
   xmlns:inkscape="http://www.inkscape.org/namespaces/inkscape"
   xmlns:sodipodi="http://sodipodi.sourceforge.net/DTD/sodipodi-0.dtd"
   xmlns="http://www.w3.org/2000/svg"
   xmlns:svg="http://www.w3.org/2000/svg">
  <defs
     id="defs346" />
  <sodipodi:namedview
     id="namedview344"
     pagecolor="#505050"
     bordercolor="#eeeeee"
     borderopacity="1"
     inkscape:showpageshadow="0"
     inkscape:pageopacity="0"
     inkscape:pagecheckerboard="0"
     inkscape:deskcolor="#505050"
     showgrid="false"
     inkscape:zoom="13.21875"
     inkscape:cx="27.990544"
     inkscape:cy="32"
     inkscape:window-width="1920"
     inkscape:window-height="1016"
     inkscape:window-x="0"
     inkscape:window-y="32"
     inkscape:window-maximized="1"
     inkscape:current-layer="SVGRoot" />
  <path
     d="m 14.4915,40.41254 v -3.42 h -1.8547 c -5.1516,0 -5.3223,6.4615 -0.18449,6.9814 2.0129,0.2037 2.0392,0.1578 2.0392,-3.5614 z m 6.6395,3.2768 c 3.8532,-1.0814 2.9198,-6.4196 -1.1343,-6.487 l -2.2211,-0.03694 -0.10038,3.059 c -0.13488,4.1104 0.1474,4.3934 3.4558,3.4649 z m 11.613,0.148 c 0.54637,-0.54638 0.60089,-35.236 0.05698,-36.252 -0.50587,-0.94522 -2.2159,-0.88659 -2.9067,0.099647 -0.84262,1.203 -0.81066,35.002 0.03398,35.935 0.64972,0.71793 2.1958,0.83727 2.8157,0.21736 z m 12.099,0 c 0.2598,-0.2598 0.41484,-1.5518 0.41484,-3.457 v -3.0421 h -2.3663 c -2.8185,0 -3.6677,0.63297 -3.6677,2.734 0,2.8158 3.9331,5.4512 5.6192,3.7652 z m 7.7522,-0.68178 c 3.1241,-2.2108 1.4412,-6.3076 -2.4976,-6.0801 l -1.5556,0.08987 -0.10074,3.0839 c -0.14102,4.3168 1.0165,5.1266 4.154,2.9063 z m 0.78649,-10.355 c 1.9427,-1.8748 0.20788,-5.4748 -2.8905,-5.9982 -2.0184,-0.341 -2.1221,-0.17256 -2.1221,3.4474 v 3.2418 l 1.1235,0.14227 c 1.6956,0.21472 3.1192,-0.09034 3.8891,-0.83324 z m -38.891,-2.7662 v -3.501 l -1.7606,0.16917 c -5.151,0.49495 -5.607,6.8327 -0.49151,6.8327 h 2.2521 z m 8.2833,2.7444 c 2.0956,-2.2494 -0.27665,-6.1574 -3.7378,-6.1574 -1.2395,0 -1.423,0.54346 -1.4295,4.2348 l -0.0047,2.6792 h 2.2336 c 1.8525,0 2.3538,-0.12906 2.9384,-0.75657 z m 22.311,-2.7004 c 0,-3.7092 -0.23604,-3.9618 -2.9439,-3.1505 -4.5486,1.3628 -3.9913,6.7427 0.67698,6.5353 l 2.267,-0.1007 z m -30.594,-12.895 c 0,-5.2198 0.15337,-5.7732 1.6001,-5.7732 1.6315,0 1.8569,0.71646 1.8569,5.9016 v 4.8151 h 1.4787 c 5.4126,0 5.782,-12.561 0.45077,-15.327 -5.9769,-3.1017 -10.918,0.54934 -10.918,8.0677 0,5.6832 0.89243,7.2101 4.2348,7.2458 l 1.2964,0.01384 v -4.9435 z m 34.701,4.5671 c 1.9516,-0.54188 4.4795,-3.1901 4.9935,-5.231 2.4134,-9.5844 -10.352,-14.753 -14.665,-5.9372 -3.0751,6.2854 2.8043,13.075 9.6712,11.168 z m -3.4652,-4.8062 c -2.8848,-1.1642 -2.0868,-5.5341 1.0106,-5.5341 3.0254,0 3.8698,4.2288 1.0774,5.3955 -0.63363,0.26475 -1.1959,0.4715 -1.2496,0.45945 -0.05364,-0.01206 -0.4309,-0.15645 -0.83836,-0.32087 z"
     fill="#626262"
     stroke-width="0.3457"
     id="path341"
     sodipodi:nodetypes="ccsccccccscccccccccscsscccccsccccscsccccsscccsccscccsccccsscscsccccccccccscccc" />
</svg>
