<?xml version="1.0" encoding="UTF-8" standalone="no"?>
<svg
   width="18"
   height="18"
   preserveAspectRatio="xMidYMid"
   viewBox="0 0 18 18"
   style="-ms-transform:rotate(360deg);-webkit-transform:rotate(360deg)"
   version="1.1"
   id="svg22"
   sodipodi:docname="split.svg"
   inkscape:version="1.2.2 (b0a84865, 2022-12-01)"
   xml:space="preserve"
   xmlns:inkscape="http://www.inkscape.org/namespaces/inkscape"
   xmlns:sodipodi="http://sodipodi.sourceforge.net/DTD/sodipodi-0.dtd"
   xmlns="http://www.w3.org/2000/svg"
   xmlns:svg="http://www.w3.org/2000/svg"><path
     id="path10175"
     style="fill:none;stroke:#626262;stroke-width:1;stroke-linecap:round;stroke-linejoin:bevel;stroke-dasharray:none;paint-order:normal"
     d="M 5.791753,1.7891824 C 4.8976402,1.9099555 4.4507877,2.861091 4.3349028,3.6630027 4.1580055,4.6271107 4.7460273,5.7488218 5.7667077,5.9113763 6.5190851,6.0876766 7.2681171,5.2019171 8,5 L 8.9265186,7.4259012 7,11 9,16 9.0319874,7.7423074 11,11 9,16 9.1374562,7.4259012 10,5 c 1.021688,0.2864674 2.319385,1.2181558 3.184271,0.450992 C 14.079882,4.546173 13.841951,2.9473612 12.979476,2.1062714 12.425013,1.55444 11.553976,1.809211 11.146602,2.4003749 10.337181,3.3581224 10.148062,4.6421185 9.6060458,5.7432584 9.4027392,6.1127 9.1948069,6.880573 9,7 8.5323008,5.9112288 8.0449342,4.8299185 7.666735,3.7058727 7.3550625,2.9591611 6.9226292,2.1212268 6.1185359,1.8244065 6.0125048,1.7951076 5.9016699,1.7818435 5.791753,1.7891824 Z"
     sodipodi:nodetypes="sccccccccccccscccccs" /><defs
     id="defs26" /><sodipodi:namedview
     id="namedview24"
     pagecolor="#ffffff"
     bordercolor="#000000"
     borderopacity="0.25"
     inkscape:showpageshadow="2"
     inkscape:pageopacity="0.0"
     inkscape:pagecheckerboard="0"
     inkscape:deskcolor="#d1d1d1"
     showgrid="true"
     inkscape:zoom="17.228807"
     inkscape:cx="0.46433858"
     inkscape:cy="5.3108725"
     inkscape:window-width="1851"
     inkscape:window-height="1027"
     inkscape:window-x="69"
     inkscape:window-y="25"
     inkscape:window-maximized="0"
     inkscape:current-layer="svg22"
     showguides="true"><inkscape:grid
       type="xygrid"
       id="grid132"
       originx="0"
       originy="0" /><sodipodi:guide
       position="9,8"
       orientation="1,0"
       id="guide14345"
       inkscape:locked="false" /></sodipodi:namedview><rect
     x="0"
     y="0"
     width="18"
     height="18"
     fill="rgba(0, 0, 0, 0)"
     id="rect20"
     style="display:none;fill:none;stroke-width:0.908127;stroke-dasharray:none"
     sodipodi:insensitive="true" /></svg>
