<?xml version="1.0" encoding="UTF-8" standalone="no"?>
<svg
   width="18"
   height="18"
   preserveAspectRatio="xMidYMid"
   viewBox="0 0 18 18"
   style="-ms-transform:rotate(360deg);-webkit-transform:rotate(360deg)"
   version="1.1"
   id="svg22"
   sodipodi:docname="time_stretch_button.svg"
   inkscape:version="1.2.2 (b0a84865, 2022-12-01)"
   xml:space="preserve"
   xmlns:inkscape="http://www.inkscape.org/namespaces/inkscape"
   xmlns:sodipodi="http://sodipodi.sourceforge.net/DTD/sodipodi-0.dtd"
   xmlns="http://www.w3.org/2000/svg"
   xmlns:svg="http://www.w3.org/2000/svg"><defs
     id="defs26" /><sodipodi:namedview
     id="namedview24"
     pagecolor="#ffffff"
     bordercolor="#000000"
     borderopacity="0.25"
     inkscape:showpageshadow="2"
     inkscape:pageopacity="0.0"
     inkscape:pagecheckerboard="0"
     inkscape:deskcolor="#d1d1d1"
     showgrid="true"
     inkscape:zoom="12.984568"
     inkscape:cx="6.1611598"
     inkscape:cy="21.063465"
     inkscape:window-width="1851"
     inkscape:window-height="1027"
     inkscape:window-x="69"
     inkscape:window-y="25"
     inkscape:window-maximized="1"
     inkscape:current-layer="svg22"
     showguides="true"><inkscape:grid
       type="xygrid"
       id="grid132"
       originx="0"
       originy="0" /><sodipodi:guide
       position="9,9"
       orientation="1,0"
       id="guide16100"
       inkscape:locked="false" /></sodipodi:namedview><rect
     x="0"
     y="0"
     width="18"
     height="18"
     fill="rgba(0, 0, 0, 0)"
     id="rect20"
     style="display:none;fill:none;stroke-width:0.908127;stroke-dasharray:none"
     sodipodi:insensitive="true" /><path
     d="M 9.3573415,4 V 4.7036005 H 9.7154287 V 9.102815 l 2.1513503,2.049222 -0.987513,1.037931 -2.5933565,-2.470244 0.00278,-0.00279 H 8.28305 V 4.7036005 H 8.6411369 V 4.0013972 A 5.0132554,5.0133293 0 0 0 4,8.6426063 H 4.7021921 V 9.3587909 H 4 A 5.0132554,5.0133293 0 0 0 8.6412058,14 V 13.297797 H 9.3573893 V 14 A 5.0132554,5.0133293 0 0 0 13.998595,9.3587909 H 13.296403 V 8.6426063 H 14 A 5.0132554,5.0133293 0 0 0 9.3573606,4 Z"
     fill="#626262"
     stroke-width="0.668441"
     id="path15586" /></svg>
