<?xml version="1.0" encoding="UTF-8" standalone="no"?>
<svg
   width="24"
   height="24"
   style="-ms-transform:rotate(360deg);-webkit-transform:rotate(360deg);transform:rotate(360deg)"
   version="1.1"
   viewBox="0 0 24 24"
   id="svg2"
   sodipodi:docname="trashcan.svg"
   xml:space="preserve"
   inkscape:version="1.4.3 (fcd0343856, 2026-01-01)"
   xmlns:inkscape="http://www.inkscape.org/namespaces/inkscape"
   xmlns:sodipodi="http://sodipodi.sourceforge.net/DTD/sodipodi-0.dtd"
   xmlns="http://www.w3.org/2000/svg"
   xmlns:svg="http://www.w3.org/2000/svg"><defs
     id="defs2"><inkscape:path-effect
       effect="bspline"
       id="path-effect4"
       is_visible="true"
       lpeversion="1.3"
       weight="33.333333"
       steps="2"
       helper_size="0"
       apply_no_weight="true"
       apply_with_weight="true"
       only_selected="false"
       uniform="false" /></defs><sodipodi:namedview
     id="namedview2"
     pagecolor="#505050"
     bordercolor="#ffffff"
     borderopacity="1"
     inkscape:showpageshadow="0"
     inkscape:pageopacity="0"
     inkscape:pagecheckerboard="1"
     inkscape:deskcolor="#505050"
     inkscape:zoom="18.385417"
     inkscape:cx="-16.589235"
     inkscape:cy="16.670822"
     inkscape:window-width="3753"
     inkscape:window-height="2062"
     inkscape:window-x="0"
     inkscape:window-y="0"
     inkscape:window-maximized="1"
     inkscape:current-layer="svg2" /><path
     id="path2"
     style="display:inline;opacity:1;fill:#626262;fill-opacity:1;stroke:none;stroke-width:1;stroke-dasharray:none;stroke-opacity:1"
     d="M 17.894531 6.9355469 L 5.65625 6.9628906 C 5.65625 6.9628906 5.5528224 9.2170265 6.2890625 18.144531 C 11.110773 20.037688 13.334026 19.437395 17.007812 18.279297 L 17.894531 6.9355469 z M 11.921875 8.4804688 C 12.389818 8.4758088 12.769593 10.561074 12.769531 13.134766 C 12.769397 15.707694 12.389679 17.791766 11.921875 17.787109 C 11.454833 17.785809 11.076307 15.703496 11.076172 13.134766 C 11.07611 10.565273 11.454694 8.4817484 11.921875 8.4804688 z M 15.296875 8.4921875 C 15.304188 8.4917211 15.311076 8.4916414 15.318359 8.4921875 C 15.784082 8.5279225 16.01051 10.633091 15.824219 13.195312 C 15.637828 15.759462 15.10871 17.810341 14.642578 17.775391 C 14.176856 17.739651 13.950428 15.634485 14.136719 13.072266 C 14.320197 10.548183 14.836186 8.5215718 15.296875 8.4921875 z M 8.3261719 8.5117188 C 8.787832 8.5202208 9.4005587 10.521198 9.7050781 13.033203 C 10.014282 15.583327 9.8892703 17.696288 9.4257812 17.753906 C 8.9619016 17.810581 8.3349067 15.787932 8.0253906 13.236328 C 7.7158415 10.684975 7.8408846 8.5706095 8.3046875 8.5136719 C 8.3119377 8.5127973 8.3188439 8.5115838 8.3261719 8.5117188 z M 16.947266 19.058594 C 12.514756 20.736093 9.5093311 20.316334 6.3691406 19.103516 C 6.4097643 19.58316 6.4527477 20.079905 6.4980469 20.595703 C 12.140533 23.761813 16.832031 20.541016 16.832031 20.541016 L 16.947266 19.058594 z " /><path
     id="rect4"
     style="opacity:1;fill:#626262;fill-opacity:1"
     d="M 11.746094 2.1152344 C 9.1741855 2.0200603 9.7748333 3.7611644 9.4550781 3.8007812 C 7.8049111 4.0052327 6.2822753 4.4131321 4.9042969 5.2304688 L 4.8261719 6.3847656 L 18.806641 6.4238281 L 18.826172 5.3457031 C 18.057754 4.7645906 16.398281 4.1495389 14.03125 3.75 C 13.90071 2.1892045 13.342603 2.1743134 11.746094 2.1152344 z M 11.787109 2.75 C 13.560616 2.74892 13.045755 3.3192181 13.326172 3.6914062 L 10.25 3.7109375 C 10.373309 3.1307731 10.74528 2.7178174 11.787109 2.75 z " /></svg>
