<?xml version="1.0" encoding="UTF-8" standalone="no"?>
<!-- Created with Inkscape (http://www.inkscape.org/) -->

<svg
   id="SVGRoot"
   width="64px"
   height="64px"
   version="1.1"
   viewBox="0 0 64 64"
   xml:space="preserve"
   sodipodi:docname="vst3Icon.svg"
   inkscape:version="1.2.2 (b0a8486541, 2022-12-01)"
   xmlns:inkscape="http://www.inkscape.org/namespaces/inkscape"
   xmlns:sodipodi="http://sodipodi.sourceforge.net/DTD/sodipodi-0.dtd"
   xmlns="http://www.w3.org/2000/svg"
   xmlns:svg="http://www.w3.org/2000/svg"><defs
     id="defs17"><rect
       x="0.09281749"
       y="11.608067"
       width="64.314894"
       height="37.798272"
       id="rect366" /><rect
       x="-0.23800572"
       y="0.042994199"
       width="64.171343"
       height="63.595173"
       id="rect360" /><rect
       x="3.1851037"
       y="13.179496"
       width="57.731326"
       height="38.818149"
       id="rect354" /></defs><sodipodi:namedview
     id="namedview15"
     pagecolor="#505050"
     bordercolor="#eeeeee"
     borderopacity="1"
     inkscape:showpageshadow="0"
     inkscape:pageopacity="0"
     inkscape:pagecheckerboard="0"
     inkscape:deskcolor="#505050"
     showgrid="false"
     inkscape:zoom="7.9225181"
     inkscape:cx="35.152965"
     inkscape:cy="38.371638"
     inkscape:window-width="1920"
     inkscape:window-height="1016"
     inkscape:window-x="0"
     inkscape:window-y="32"
     inkscape:window-maximized="1"
     inkscape:current-layer="SVGRoot"
     showguides="true"><sodipodi:guide
       position="-77.650872,97.001621"
       orientation="0.70710678,-0.70710678"
       id="guide293"
       inkscape:locked="false" /><sodipodi:guide
       position="8.9686845,34.918026"
       orientation="1,0"
       id="guide295"
       inkscape:locked="false" /><sodipodi:guide
       position="55.076427,32.054877"
       orientation="1,0"
       id="guide297"
       inkscape:locked="false" /><sodipodi:guide
       position="59.11423,41.375365"
       orientation="0,-1"
       id="guide418"
       inkscape:locked="false" /><sodipodi:guide
       position="60.217798,22.833532"
       orientation="0,-1"
       id="guide420"
       inkscape:locked="false" /><sodipodi:guide
       position="12.117359,62.611553"
       orientation="1,0"
       id="guide2438"
       inkscape:locked="false" /><sodipodi:guide
       position="51.372555,45.950183"
       orientation="1,0"
       id="guide2544"
       inkscape:locked="false" /></sodipodi:namedview><path
     id="text364"
     style="font-style:normal;font-variant:normal;font-weight:normal;font-stretch:normal;font-size:14.6667px;font-family:Likhan;-inkscape-font-specification:Likhan;text-align:center;white-space:pre;shape-inside:url(#rect366);display:inline;fill:#626262;stroke:none"
     d="M 19.761515 14.551838 C 17.391448 14.551838 15.482761 15.798406 15.482761 17.346302 L 15.482761 23.706778 C 15.482761 25.254673 17.391448 26.500282 19.761515 26.500282 L 46.015901 26.500282 C 48.385967 26.500282 50.293185 25.254673 50.293185 23.706778 L 50.293185 17.346302 C 50.293185 15.798406 48.385967 14.551838 46.015901 14.551838 L 19.761515 14.551838 z M 44.076356 16.16019 C 44.843528 16.178094 45.521229 16.362989 46.10847 16.713901 C 46.733905 17.081523 47.080461 17.556496 47.147302 18.138962 C 47.238014 18.917175 46.836699 19.597645 45.943902 20.180111 C 46.521594 20.56683 46.953412 21.010784 47.239871 21.512087 C 47.52633 22.018164 47.616736 22.524156 47.511701 23.030233 C 47.37802 23.684314 46.979278 24.213576 46.315648 24.619393 C 45.652019 25.029983 44.872541 25.23548 43.97497 25.23548 C 43.072625 25.23548 42.499318 25.080386 42.255828 24.770056 C 42.169891 24.660246 42.129098 24.505153 42.133872 24.304632 C 42.133872 24.10411 42.224278 23.917998 42.405702 23.746123 C 42.587126 23.579022 42.783373 23.52183 42.993443 23.574348 C 43.494746 23.69848 43.97875 23.636442 44.446632 23.388178 C 44.871546 23.159011 45.084331 22.872093 45.084331 22.528343 L 45.084331 22.449653 C 45.084331 22.086805 45.048683 21.843501 44.977069 21.719369 C 44.843388 21.471105 44.666251 21.289838 44.446632 21.175255 C 44.351146 21.117963 44.181726 21.070463 43.938237 21.032269 C 43.699521 20.994074 43.524956 20.912653 43.415147 20.788521 C 43.305338 20.664389 43.25058 20.514141 43.25058 20.337491 L 43.25058 20.308702 C 43.25058 19.955403 43.422572 19.733426 43.766322 19.642714 C 44.234205 19.513807 44.537396 19.38683 44.675851 19.262698 C 44.971859 19.00011 45.10563 18.730633 45.076985 18.453723 C 45.048339 18.172039 44.886636 17.935524 44.590629 17.744551 C 44.294622 17.553579 43.945492 17.45858 43.54445 17.45858 C 43.396447 17.463354 43.160876 17.494373 42.836222 17.551664 C 42.673896 17.58031 42.515869 17.534754 42.363091 17.415396 C 42.210313 17.296038 42.1313 17.138041 42.126525 16.942295 L 42.126525 16.92886 C 42.126525 16.61853 42.27169 16.424668 42.562923 16.348279 C 42.854156 16.27189 43.093769 16.221488 43.279967 16.197616 C 43.555683 16.166583 43.820632 16.154222 44.076356 16.16019 z M 30.439298 16.168827 C 30.80692 16.168827 31.301213 16.245402 31.921874 16.39818 C 32.146267 16.450698 32.320831 16.584465 32.444963 16.799309 C 32.569095 17.014153 32.602171 17.234187 32.544879 17.45858 L 32.530186 17.472974 C 32.458571 17.692592 32.327372 17.859321 32.136399 17.973905 C 31.940653 18.093263 31.727868 18.122338 31.498701 18.060272 C 30.548612 17.792911 29.878651 17.814238 29.487157 18.124568 C 29.277088 18.291669 29.171247 18.497165 29.171247 18.740655 C 29.171247 18.984145 29.291053 19.181892 29.529769 19.33467 C 29.76371 19.487448 30.233749 19.697791 30.940347 19.965152 C 32.391737 20.509424 33.117927 21.389584 33.117927 22.607033 C 33.117927 23.375697 32.847811 24.013513 32.308314 24.51959 C 31.663782 25.111605 30.723704 25.407255 29.487157 25.407255 C 29.0145 25.407255 28.427228 25.302563 27.725404 25.092494 C 27.505786 25.039976 27.336366 24.909112 27.217008 24.699042 C 27.092876 24.488973 27.057228 24.270882 27.109745 24.046489 L 27.12297 24.01866 C 27.185036 23.77517 27.323952 23.592944 27.538796 23.473586 C 27.758415 23.349454 27.99031 23.328127 28.2338 23.40929 C 28.806717 23.590714 29.285576 23.681827 29.672296 23.681827 C 30.054241 23.681827 30.367722 23.598463 30.611212 23.431362 C 30.854702 23.264261 30.975611 23.047129 30.975611 22.779768 C 30.975611 22.507632 30.868667 22.285655 30.653823 22.11378 C 30.434205 21.941905 30.054572 21.757735 29.515075 21.561988 C 27.858389 20.969974 27.0304 20.072373 27.0304 18.869246 C 27.0304 18.048065 27.342412 17.396671 27.967847 16.914465 C 28.593282 16.408388 29.417595 16.159278 30.439298 16.168827 z M 19.051818 16.248477 L 19.303077 16.248477 C 19.52747 16.248477 19.73511 16.317304 19.926082 16.455759 C 20.117055 16.594214 20.240537 16.773537 20.297828 16.993155 L 21.107442 20.087026 C 21.551453 21.638677 21.832961 22.700104 21.952319 23.273022 L 21.9964 23.273022 C 22.02982 23.101146 22.315004 22.0562 22.854501 20.136927 L 23.643543 16.978761 C 23.696061 16.773466 23.819543 16.598988 24.01529 16.455759 C 24.211036 16.312529 24.4874 16.243703 24.845474 16.248477 L 24.867514 16.248477 C 25.230362 16.248477 25.517015 16.395822 25.727085 16.691829 C 25.937155 16.987837 25.981623 17.310619 25.862265 17.659144 L 23.693501 24.060884 C 23.569369 24.423731 23.342619 24.707746 23.013191 24.913042 C 22.683764 25.118337 22.356317 25.221085 22.031664 25.221085 L 21.830363 25.221085 C 21.453192 25.216311 21.11178 25.108717 20.806224 24.898647 C 20.495894 24.674254 20.284578 24.386353 20.169995 24.033054 L 18.064413 17.644749 C 17.94983 17.300999 17.99687 16.981119 18.20694 16.685112 C 18.41701 16.389105 18.698519 16.243703 19.051818 16.248477 z M 34.900251 16.248477 L 40.394159 16.248477 C 40.637649 16.248477 40.834999 16.348322 40.987777 16.548843 C 41.140555 16.749365 41.176203 16.987823 41.09504 17.264733 L 41.09504 17.293522 C 41.056846 17.451074 40.966439 17.584841 40.82321 17.69465 C 40.675206 17.804459 40.532614 17.851959 40.394159 17.837636 L 38.747015 17.709045 L 38.747015 24.211547 C 38.747015 24.521877 38.641174 24.784565 38.431104 24.999409 C 38.221035 25.209479 37.958636 25.31417 37.643532 25.31417 L 37.636185 25.31417 C 37.330629 25.31417 37.073375 25.209479 36.863306 24.999409 C 36.653236 24.789339 36.547395 24.526651 36.547395 24.211547 L 36.547395 17.709045 L 34.900251 17.837636 C 34.737924 17.851959 34.587615 17.79767 34.44916 17.673538 C 34.310705 17.55418 34.228016 17.427203 34.19937 17.293522 L 34.19937 17.264733 C 34.13253 16.968725 34.173323 16.725421 34.321326 16.534449 C 34.46933 16.343476 34.661535 16.248477 34.900251 16.248477 z "
     transform="matrix(1.3292422,0,0,2.0352743,-11.806902,-10.185342)" /></svg>
