<svg xmlns="http://www.w3.org/2000/svg" xmlns:xlink="http://www.w3.org/1999/xlink" width="24" height="24" preserveAspectRatio="xMidYMid meet" viewBox="0 0 24 24" style="-ms-transform: rotate(360deg); -webkit-transform: rotate(360deg); transform: rotate(360deg);"><path d="M22 12l-2 1l-1 1l-1-1l-1 3l-1-3l-1 8l-1-8l-1 2l-1-2l-1 4l-1-4l-1 9l-1-9l-1 6l-1-6l-1 1l-1-1l-2-1l2-1l1-1l1 1l1-6l1 6l1-9l1 9l1-4l1 4l1-2l1 2l1-8l1 8l1-3l1 3l1-1l1 1l2 1z" fill="#626262"/><rect x="0" y="0" width="24" height="24" fill="rgba(0, 0, 0, 0)" /></svg>